<svg xmlns="http://www.w3.org/2000/svg" xmlns:xlink="http://www.w3.org/1999/xlink" xmlns:lucid="lucid" width="1104" height="1941.91"><g transform="translate(31 -260)" lucid:page-tab-id="0_0"><path d="M0 0h1760v2656H0z" fill="#fff"/><path d="M620 286a6 6 0 0 1 6-6h348a6 6 0 0 1 6 6v189a6 6 0 0 1-6 6H626a6 6 0 0 1-6-6z" stroke="#3a414a" fill="#fff"/><path d="M620 349.87h360" stroke="#3a414a" fill="none"/><use xlink:href="#a" transform="matrix(1,0,0,1,628,288) translate(137.55 14.46666666666667)"/><use xlink:href="#b" transform="matrix(1,0,0,1,628,288) translate(196.45000000000002 14.46666666666667)"/><use xlink:href="#c" transform="matrix(1,0,0,1,628,288) translate(99.02654320987656 43.17777777777778)"/><use xlink:href="#d" transform="matrix(1,0,0,1,632,357.8666666666667) translate(0 39.79166666666667)"/><use xlink:href="#e" transform="matrix(1,0,0,1,632,357.8666666666667) translate(72.52083333333334 39.79166666666667)"/><use xlink:href="#f" transform="matrix(1,0,0,1,632,357.8666666666667) translate(96.72916666666669 39.79166666666667)"/><use xlink:href="#g" transform="matrix(1,0,0,1,632,357.8666666666667) translate(178.28125000000003 39.79166666666667)"/><use xlink:href="#h" transform="matrix(1,0,0,1,632,357.8666666666667) translate(262.25 39.79166666666667)"/><use xlink:href="#i" transform="matrix(1,0,0,1,632,357.8666666666667) translate(0 64.79166666666667)"/><use xlink:href="#j" transform="matrix(1,0,0,1,632,357.8666666666667) translate(121.03125000000001 64.79166666666667)"/><use xlink:href="#k" transform="matrix(1,0,0,1,632,357.8666666666667) translate(161.71875 64.79166666666667)"/><use xlink:href="#l" transform="matrix(1,0,0,1,632,357.8666666666667) translate(251.57291666666669 64.79166666666667)"/><use xlink:href="#m" transform="matrix(1,0,0,1,632,357.8666666666667) translate(0 89.79166666666667)"/><use xlink:href="#n" transform="matrix(1,0,0,1,632,357.8666666666667) translate(106.15625 89.79166666666667)"/><use xlink:href="#o" transform="matrix(1,0,0,1,632,357.8666666666667) translate(151.36458333333334 89.79166666666667)"/><use xlink:href="#p" transform="matrix(1,0,0,1,632,357.8666666666667) translate(186.66666666666669 89.79166666666667)"/><path d="M620 573.65a6 6 0 0 1 6-6h348a6 6 0 0 1 6 6v189a6 6 0 0 1-6 6H626a6 6 0 0 1-6-6z" stroke="#3a414a" fill="#fff"/><path d="M620 637.52h360" stroke="#3a414a" fill="none"/><use xlink:href="#a" transform="matrix(1,0,0,1,628,575.6508371746254) translate(137.55 14.46666666666667)"/><use xlink:href="#q" transform="matrix(1,0,0,1,628,575.6508371746254) translate(196.45000000000002 14.46666666666667)"/><use xlink:href="#r" transform="matrix(1,0,0,1,628,575.6508371746254) translate(90.77314814814817 43.17777777777778)"/><use xlink:href="#s" transform="matrix(1,0,0,1,632,645.5175038412921) translate(0 39.79166666666667)"/><use xlink:href="#t" transform="matrix(1,0,0,1,632,645.5175038412921) translate(84.51041666666667 39.79166666666667)"/><use xlink:href="#u" transform="matrix(1,0,0,1,632,645.5175038412921) translate(132 39.79166666666667)"/><use xlink:href="#v" transform="matrix(1,0,0,1,632,645.5175038412921) translate(164.07291666666669 39.79166666666667)"/><use xlink:href="#w" transform="matrix(1,0,0,1,632,645.5175038412921) translate(288.375 39.79166666666667)"/><use xlink:href="#i" transform="matrix(1,0,0,1,632,645.5175038412921) translate(0 64.79166666666667)"/><use xlink:href="#j" transform="matrix(1,0,0,1,632,645.5175038412921) translate(121.03125000000001 64.79166666666667)"/><use xlink:href="#x" transform="matrix(1,0,0,1,632,645.5175038412921) translate(161.71875 64.79166666666667)"/><use xlink:href="#y" transform="matrix(1,0,0,1,632,645.5175038412921) translate(247.83333333333334 64.79166666666667)"/><use xlink:href="#z" transform="matrix(1,0,0,1,632,645.5175038412921) translate(0 89.79166666666667)"/><use xlink:href="#j" transform="matrix(1,0,0,1,632,645.5175038412921) translate(105.07291666666667 89.79166666666667)"/><use xlink:href="#A" transform="matrix(1,0,0,1,632,645.5175038412921) translate(145.76041666666669 89.79166666666667)"/><path d="M620 861.3a6 6 0 0 1 6-6h348a6 6 0 0 1 6 6v189a6 6 0 0 1-6 6H626a6 6 0 0 1-6-6z" stroke="#3a414a" fill="#fff"/><path d="M620 925.17h360" stroke="#3a414a" fill="none"/><use xlink:href="#a" transform="matrix(1,0,0,1,628,863.301674349251) translate(137.55 14.46666666666667)"/><use xlink:href="#B" transform="matrix(1,0,0,1,628,863.301674349251) translate(196.45000000000002 14.46666666666667)"/><use xlink:href="#C" transform="matrix(1,0,0,1,628,863.301674349251) translate(120.53765432098766 43.17777777777778)"/><use xlink:href="#D" transform="matrix(1,0,0,1,632,933.1683410159177) translate(0 39.79166666666667)"/><use xlink:href="#E" transform="matrix(1,0,0,1,632,933.1683410159177) translate(118.54166666666667 39.79166666666667)"/><use xlink:href="#F" transform="matrix(1,0,0,1,632,933.1683410159177) translate(215.95833333333334 39.79166666666667)"/><use xlink:href="#G" transform="matrix(1,0,0,1,632,933.1683410159177) translate(0 64.79166666666667)"/><use xlink:href="#H" transform="matrix(1,0,0,1,632,933.1683410159177) translate(107.29166666666667 64.79166666666667)"/><use xlink:href="#I" transform="matrix(1,0,0,1,632,933.1683410159177) translate(229 64.79166666666667)"/><use xlink:href="#J" transform="matrix(1,0,0,1,632,933.1683410159177) translate(0 89.79166666666667)"/><path d="M620 1148.95a6 6 0 0 1 6-6h348a6 6 0 0 1 6 6v189a6 6 0 0 1-6 6H626a6 6 0 0 1-6-6z" stroke="#3a414a" fill="#fff"/><path d="M620 1212.82h360" stroke="#3a414a" fill="none"/><g><use xlink:href="#a" transform="matrix(1,0,0,1,628,1150.9525115238766) translate(137.55 14.46666666666667)"/><use xlink:href="#K" transform="matrix(1,0,0,1,628,1150.9525115238766) translate(196.45000000000002 14.46666666666667)"/><use xlink:href="#L" transform="matrix(1,0,0,1,628,1150.9525115238766) translate(110.19290123456791 43.17777777777778)"/></g><g><use xlink:href="#M" transform="matrix(1,0,0,1,632,1220.8191781905432) translate(0 39.79166666666667)"/><use xlink:href="#N" transform="matrix(1,0,0,1,632,1220.8191781905432) translate(87.60416666666667 39.79166666666667)"/><use xlink:href="#O" transform="matrix(1,0,0,1,632,1220.8191781905432) translate(161.61458333333334 39.79166666666667)"/><use xlink:href="#P" transform="matrix(1,0,0,1,632,1220.8191781905432) translate(0 64.79166666666667)"/><use xlink:href="#Q" transform="matrix(1,0,0,1,632,1220.8191781905432) translate(77.96875000000001 64.79166666666667)"/><use xlink:href="#t" transform="matrix(1,0,0,1,632,1220.8191781905432) translate(102.82291666666669 64.79166666666667)"/><use xlink:href="#n" transform="matrix(1,0,0,1,632,1220.8191781905432) translate(150.31250000000003 64.79166666666667)"/><use xlink:href="#R" transform="matrix(1,0,0,1,632,1220.8191781905432) translate(195.52083333333337 64.79166666666667)"/><use xlink:href="#S" transform="matrix(1,0,0,1,632,1220.8191781905432) translate(245.71875000000006 64.79166666666667)"/><use xlink:href="#j" transform="matrix(1,0,0,1,632,1220.8191781905432) translate(0 89.79166666666667)"/><use xlink:href="#T" transform="matrix(1,0,0,1,632,1220.8191781905432) translate(40.6875 89.79166666666667)"/><use xlink:href="#U" transform="matrix(1,0,0,1,632,1220.8191781905432) translate(86.75 89.79166666666667)"/></g><path d="M620 1436.6a6 6 0 0 1 6-6h348a6 6 0 0 1 6 6v164a6 6 0 0 1-6 6H626a6 6 0 0 1-6-6z" stroke="#3a414a" fill="#fff"/><path d="M620 1500.47h360" stroke="#3a414a" fill="none"/><g><use xlink:href="#a" transform="matrix(1,0,0,1,628,1438.603348698502) translate(137.55 14.46666666666667)"/><use xlink:href="#V" transform="matrix(1,0,0,1,628,1438.603348698502) translate(196.45000000000002 14.46666666666667)"/><use xlink:href="#W" transform="matrix(1,0,0,1,628,1438.603348698502) translate(119.0811728395062 43.17777777777778)"/></g><g><use xlink:href="#X" transform="matrix(1,0,0,1,632,1508.4700153651686) translate(0 39.791666666666664)"/><use xlink:href="#Y" transform="matrix(1,0,0,1,632,1508.4700153651686) translate(67.71875000000001 39.791666666666664)"/><use xlink:href="#j" transform="matrix(1,0,0,1,632,1508.4700153651686) translate(177.90625 39.791666666666664)"/><use xlink:href="#Z" transform="matrix(1,0,0,1,632,1508.4700153651686) translate(218.59375 39.791666666666664)"/><use xlink:href="#h" transform="matrix(1,0,0,1,632,1508.4700153651686) translate(290.6979166666667 39.791666666666664)"/><use xlink:href="#t" transform="matrix(1,0,0,1,632,1508.4700153651686) translate(0 64.79166666666667)"/><use xlink:href="#aa" transform="matrix(1,0,0,1,632,1508.4700153651686) translate(47.48958333333334 64.79166666666667)"/><use xlink:href="#ab" transform="matrix(1,0,0,1,632,1508.4700153651686) translate(116.71875000000001 64.79166666666667)"/><use xlink:href="#ac" transform="matrix(1,0,0,1,632,1508.4700153651686) translate(198.22916666666669 64.79166666666667)"/></g><path d="M620 1724.25a6 6 0 0 1 6-6h348a6 6 0 0 1 6 6v189a6 6 0 0 1-6 6H626a6 6 0 0 1-6-6z" stroke="#3a414a" fill="#fff"/><path d="M620 1788.12h360" stroke="#3a414a" fill="none"/><g><use xlink:href="#a" transform="matrix(1,0,0,1,628,1726.2541858731272) translate(137.55 14.46666666666667)"/><use xlink:href="#ad" transform="matrix(1,0,0,1,628,1726.2541858731272) translate(196.45000000000002 14.46666666666667)"/><use xlink:href="#ae" transform="matrix(1,0,0,1,628,1726.2541858731272) translate(111.64938271604939 43.17777777777778)"/><use xlink:href="#af" transform="matrix(1,0,0,1,628,1726.2541858731272) translate(177.2283950617284 43.17777777777778)"/></g><g><use xlink:href="#ag" transform="matrix(1,0,0,1,632,1796.1208525397938) translate(0 39.79166666666667)"/><use xlink:href="#ah" transform="matrix(1,0,0,1,632,1796.1208525397938) translate(93.15625 39.79166666666667)"/><use xlink:href="#e" transform="matrix(1,0,0,1,632,1796.1208525397938) translate(165.67708333333334 39.79166666666667)"/><use xlink:href="#ai" transform="matrix(1,0,0,1,632,1796.1208525397938) translate(189.88541666666669 39.79166666666667)"/><use xlink:href="#aj" transform="matrix(1,0,0,1,632,1796.1208525397938) translate(0 64.79166666666667)"/><use xlink:href="#ak" transform="matrix(1,0,0,1,632,1796.1208525397938) translate(128.41666666666666 64.79166666666667)"/><use xlink:href="#F" transform="matrix(1,0,0,1,632,1796.1208525397938) translate(211.36458333333331 64.79166666666667)"/><use xlink:href="#al" transform="matrix(1,0,0,1,632,1796.1208525397938) translate(0 89.79166666666667)"/><use xlink:href="#t" transform="matrix(1,0,0,1,632,1796.1208525397938) translate(97.69791666666667 89.79166666666667)"/><use xlink:href="#am" transform="matrix(1,0,0,1,632,1796.1208525397938) translate(145.1875 89.79166666666667)"/><use xlink:href="#an" transform="matrix(1,0,0,1,632,1796.1208525397938) translate(186.34375 89.79166666666667)"/></g><path d="M620 2011.9a6 6 0 0 1 6-6h348a6 6 0 0 1 6 6v164a6 6 0 0 1-6 6H626a6 6 0 0 1-6-6z" stroke="#000" fill="#fff"/><path d="M620 2075.77h360" stroke="#000" fill="none"/><g><use xlink:href="#a" transform="matrix(1,0,0,1,628,2013.9050230477526) translate(137.55 14.46666666666667)"/><use xlink:href="#ao" transform="matrix(1,0,0,1,628,2013.9050230477526) translate(196.45000000000002 14.46666666666667)"/><use xlink:href="#ap" transform="matrix(1,0,0,1,628,2013.9050230477526) translate(117.51265432098766 43.17777777777778)"/></g><g><use xlink:href="#aq" transform="matrix(1,0,0,1,632,2083.771689714419) translate(0 39.791666666666664)"/><use xlink:href="#ar" transform="matrix(1,0,0,1,632,2083.771689714419) translate(83.21875000000001 39.791666666666664)"/><use xlink:href="#as" transform="matrix(1,0,0,1,632,2083.771689714419) translate(172.57291666666669 39.791666666666664)"/><use xlink:href="#at" transform="matrix(1,0,0,1,632,2083.771689714419) translate(258.5 39.791666666666664)"/><use xlink:href="#j" transform="matrix(1,0,0,1,632,2083.771689714419) translate(0 64.79166666666667)"/><use xlink:href="#o" transform="matrix(1,0,0,1,632,2083.771689714419) translate(40.6875 64.79166666666667)"/><use xlink:href="#aj" transform="matrix(1,0,0,1,632,2083.771689714419) translate(75.98958333333334 64.79166666666667)"/><use xlink:href="#au" transform="matrix(1,0,0,1,632,2083.771689714419) translate(204.40625 64.79166666666667)"/></g><path d="M800 1919.75v86.15M815 1920.75h-30M785 2004.9h30M800 1717.75V1607.1M785 1716.75h30M815 1608.1h-30M800 1344.45v86.15M815 1345.45h-30M785 1429.6h30M800 1056.8l1 87.57M815 1057.63l-30 .34M786 1143.55l30-.35M800 769.15v86.15M815 770.15h-30M785 854.3h30M800 481.5v86.15M815 482.5h-30M785 566.65h30" stroke="#3a414a" stroke-width="2" fill="none"/><g class="lucid-layer" lucid:layer-id="71sC2lqT9PbQ" display="block"><path d="M155.76 884.24a6 6 0 0 1 8.48 0l12.22 12.22A2.07 2.07 0 0 1 175 900a5 5 0 0 0-5 5v290a5 5 0 0 0 5 5 2.07 2.07 0 0 1 1.46 3.54l-12.22 12.22a6 6 0 0 1-8.48 0l-12.22-12.22A2.07 2.07 0 0 1 145 1200a5 5 0 0 0 5-5V905a5 5 0 0 0-5-5 2.07 2.07 0 0 1-1.46-3.54z" fill="#fff"/><path d="M170 924.33v19.34m0 9.66v19.34m0 9.66v19.34m0 9.66v19.34m0 9.66v19.34m0 9.66v19.34m0 9.66v19.34m0 9.66v19.34m0 9.66v19.34m0 9.66v9.67l.06.78.18.76.3.73.4.67.52.6.6.5.67.42.72.3.77.18.78.06.48.06.46.17.4.27.33.35.24.43.15.47.02.48-.1.48-.2.45-.3.4-12.23 12.2-.7.62-.82.5-.87.35-.9.22-.95.08-.94-.08-.9-.22-.88-.36-.8-.5-.72-.6-12.22-12.22-.3-.4-.2-.43-.1-.47v-.48l.15-.47.23-.43.32-.35.4-.27.47-.17.48-.06.78-.06.77-.18.72-.3.67-.4.6-.52.5-.6.4-.67.32-.72.18-.77.06-.78v-9.67m0-9.66v-19.34m0-9.66v-19.34m0-9.66v-19.34m0-9.66v-19.34m0-9.66v-19.34m0-9.66v-19.34m0-9.66v-19.34m0-9.66v-19.34m0-9.66v-19.34m0-9.66V905l-.06-.78-.18-.76-.3-.73-.4-.67-.52-.6-.6-.5-.67-.4-.72-.3-.77-.2-.78-.06-.48-.06-.46-.17-.4-.27-.33-.35-.24-.43-.15-.47-.02-.48.1-.48.2-.45.3-.38 12.23-12.23.7-.6.82-.5.87-.36.9-.22.95-.07.94.06.9.22.88.36.8.5.72.6 12.22 12.22.3.4.2.43.1.47v.48l-.15.47-.23.43-.32.35-.4.27-.47.17-.48.06-.78.06-.77.2-.72.3-.67.4-.6.5-.5.6-.4.67-.32.73-.18.76-.06.78v9.67" stroke="#3a414a" stroke-width="2" fill="none"/><path d="M20 926a6 6 0 0 1 6-6h108a6 6 0 0 1 6 6v36a6 6 0 0 1-6 6H26a6 6 0 0 1-6-6z" fill="#fff"/><path d="M44 920h18m9 0h18m9 0h18m9 0h9l.94.07.9.22.88.35.8.5.72.6.6.72.5.8.37.88.23.9.07.95v12m0 12v12l-.07.94-.22.9-.35.88-.5.8-.6.72-.72.6-.8.5-.88.37-.9.23-.95.07h-9m-9 0H98m-9 0H71m-9 0H44m-9 0h-9l-.94-.07-.9-.22-.88-.35-.8-.5-.72-.6-.6-.72-.5-.8-.37-.88-.23-.9L20 962v-12m0-12v-12l.07-.94.22-.9.35-.88.5-.8.6-.72.72-.6.8-.5.88-.37.9-.23.95-.07h9" stroke="#3a414a" stroke-width="2" fill="none"/><use xlink:href="#av" transform="matrix(1,0,0,1,28,928) translate(15.777777777777786 21.333333333333332)"/><path d="M20 1148.95a6 6 0 0 1 6-6h108a6 6 0 0 1 6 6v36a6 6 0 0 1-6 6H26a6 6 0 0 1-6-6z" fill="#fff"/><path d="M44 1142.95h18m9 0h18m9 0h18m9 0h9l.94.08.9.22.88.36.8.5.72.6.6.73.5.8.37.87.23.9.07.95v12m0 12v12l-.07.94-.22.9-.35.88-.5.8-.6.7-.72.63-.8.5-.88.36-.9.22-.95.07h-9m-9 0H98m-9 0H71m-9 0H44m-9 0h-9l-.94-.07-.9-.22-.88-.36-.8-.5-.72-.6-.6-.72-.5-.8-.37-.87-.23-.9-.07-.95v-12m0-12v-12l.07-.94.22-.9.35-.87.5-.8.6-.72.72-.6.8-.5.88-.35.9-.22.95-.08h9" stroke="#3a414a" stroke-width="2" fill="none"/><g><use xlink:href="#aw" transform="matrix(1,0,0,1,28,1150.9525115238766) translate(15.777777777777786 21.333333333333332)"/></g></g><g class="lucid-layer" lucid:layer-id="JFsCn2GHJXVf" display="block"><path d="M1 803.83a6 6 0 0 1 6-6h103a6 6 0 0 1 6 6v8a14.48 14.48 0 0 1-4.24 10.25l-1.52 1.5a14.48 14.48 0 0 1-10.24 4.25H7a6 6 0 0 1-6-6z" fill="#fff"/><path d="M116 797.83v20l-10 10H1" stroke="#3a414a" stroke-width="2" fill="none"/><path d="M1 803.83a6 6 0 0 1 6-6h1028a6 6 0 0 1 6 6v591.6a6 6 0 0 1-6 6H7a6 6 0 0 1-6-6z" stroke="#3a414a" stroke-width="2" fill="none"/><use xlink:href="#ax" transform="matrix(1,0,0,1,8.999950000000013,797.833029869614) translate(0 19.933333333333334)"/><path d="M1042 1099.63h-9.92m-9.93 0h-19.85m-9.92 0h-19.85m-9.92 0h-19.84m-9.92 0H913m-9.93 0h-19.85m-9.93 0h-19.85m-9.93 0h-19.84m-9.93 0H793.9m-9.92 0h-19.85m-9.92 0h-19.84m-9.92 0H704.6m-9.93 0h-19.85m-9.93 0h-19.85m-9.93 0h-19.84m-9.93 0H585.5m-9.92 0h-19.85m-9.92 0h-19.84m-9.92 0H496.2m-9.93 0h-19.85m-9.93 0h-19.85m-9.93 0h-19.84m-9.93 0H377.1m-9.92 0h-19.85m-9.92 0h-19.84m-9.92 0H287.8m-9.93 0h-19.85m-9.92 0h-19.85m-9.93 0h-19.84m-9.93 0H168.7m-9.92 0h-19.85m-9.92 0h-19.84m-9.92 0H79.4m-9.93 0H49.62m-9.92 0H19.84m-9.93 0H0M1041 1114.63v-30M1 1084.63v30" stroke="#3a414a" stroke-width="2" fill="none"/><use xlink:href="#ay" transform="matrix(1,0,0,1,22.39655722126335,1068.9604262579712) translate(0.005000000000002558 17.77777777777778)"/></g><defs><path d="M24 0v-248h52v208h133V0H24" id="az"/><path d="M133-34C117-15 103 5 69 4 32 3 11-16 11-54c-1-60 55-63 116-61 1-26-3-47-28-47-18 1-26 9-28 27l-52-2c7-38 36-58 82-57s74 22 75 68l1 82c-1 14 12 18 25 15v27c-30 8-71 5-69-32zm-48 3c29 0 43-24 42-57-32 0-66-3-65 30 0 17 8 27 23 27" id="aA"/><path d="M123 10C108 53 80 86 19 72V37c35 8 53-11 59-39L3-190h52l48 148c12-52 28-100 44-148h51" id="aB"/><path d="M185-48c-13 30-37 53-82 52C43 2 14-33 14-96s30-98 90-98c62 0 83 45 84 108H66c0 31 8 55 39 56 18 0 30-7 34-22zm-45-69c5-46-57-63-70-21-2 6-4 13-4 21h74" id="aC"/><path d="M135-150c-39-12-60 13-60 57V0H25l-1-190h47c2 13-1 29 3 40 6-28 27-53 61-41v41" id="aD"/><path d="M35-132v-50h50v50H35zM35 0v-49h50V0H35" id="aE"/><g id="a"><use transform="matrix(0.05,0,0,0.05,0,0)" xlink:href="#az"/><use transform="matrix(0.05,0,0,0.05,10.950000000000001,0)" xlink:href="#aA"/><use transform="matrix(0.05,0,0,0.05,20.950000000000003,0)" xlink:href="#aB"/><use transform="matrix(0.05,0,0,0.05,30.950000000000003,0)" xlink:href="#aC"/><use transform="matrix(0.05,0,0,0.05,40.95,0)" xlink:href="#aD"/><use transform="matrix(0.05,0,0,0.05,47.95,0)" xlink:href="#aE"/></g><path d="M52 0c1-96 47-148 87-207H15v-41h169v40c-36 62-79 113-81 208H52" id="aF"/><use transform="matrix(0.05,0,0,0.05,0,0)" xlink:href="#aF" id="b"/><path d="M199 0l-22-63H83L61 0H9l90-248h61L250 0h-51zm-33-102l-36-108c-10 38-24 72-36 108h72" id="aG"/><path d="M135-194c53 0 70 44 70 98 0 56-19 98-73 100-31 1-45-17-59-34 3 33 2 69 2 105H25l-1-265h48c2 10 0 23 3 31 11-24 29-35 60-35zM114-30c33 0 39-31 40-66 0-38-9-64-40-64-56 0-55 130 0 130" id="aH"/><path d="M25 0v-261h50V0H25" id="aI"/><path d="M25-224v-37h50v37H25zM25 0v-190h50V0H25" id="aJ"/><path d="M190-63c-7 42-38 67-86 67-59 0-84-38-90-98-12-110 154-137 174-36l-49 2c-2-19-15-32-35-32-30 0-35 28-38 64-6 74 65 87 74 30" id="aK"/><path d="M115-3C79 11 28 4 28-45v-112H4v-33h27l15-45h31v45h36v33H77v99c-1 23 16 31 38 25v30" id="aL"/><path d="M110-194c64 0 96 36 96 99 0 64-35 99-97 99-61 0-95-36-95-99 0-62 34-99 96-99zm-1 164c35 0 45-28 45-65 0-40-10-65-43-65-34 0-45 26-45 65 0 36 10 65 43 65" id="aM"/><path d="M135-194c87-1 58 113 63 194h-50c-7-57 23-157-34-157-59 0-34 97-39 157H25l-1-190h47c2 12-1 28 3 38 12-26 28-41 61-42" id="aN"/><g id="c"><use transform="matrix(0.07469135802469135,0,0,0.07469135802469135,0,0)" xlink:href="#aG"/><use transform="matrix(0.07469135802469135,0,0,0.07469135802469135,19.34506172839506,0)" xlink:href="#aH"/><use transform="matrix(0.07469135802469135,0,0,0.07469135802469135,35.70246913580246,0)" xlink:href="#aH"/><use transform="matrix(0.07469135802469135,0,0,0.07469135802469135,52.05987654320987,0)" xlink:href="#aI"/><use transform="matrix(0.07469135802469135,0,0,0.07469135802469135,59.529012345679,0)" xlink:href="#aJ"/><use transform="matrix(0.07469135802469135,0,0,0.07469135802469135,66.99814814814813,0)" xlink:href="#aK"/><use transform="matrix(0.07469135802469135,0,0,0.07469135802469135,81.93641975308638,0)" xlink:href="#aA"/><use transform="matrix(0.07469135802469135,0,0,0.07469135802469135,96.87469135802466,0)" xlink:href="#aL"/><use transform="matrix(0.07469135802469135,0,0,0.07469135802469135,105.76296296296293,0)" xlink:href="#aJ"/><use transform="matrix(0.07469135802469135,0,0,0.07469135802469135,113.23209876543206,0)" xlink:href="#aM"/><use transform="matrix(0.07469135802469135,0,0,0.07469135802469135,129.58950617283946,0)" xlink:href="#aN"/></g><path fill="#6db1ff" d="M561-1102c238-4 403 126 403 351v498c0 99 13 178 38 237V0H808c-11-21-19-59-26-114C696-25 593 20 474 20c-199 0-368-130-365-320 4-251 214-359 490-356h180v-85c-1-135-86-212-229-212-115 0-232 67-233 171H131c20-205 206-316 430-320zM294-326c0 117 90 185 207 185 122 0 239-75 278-162v-222H634c-227 0-340 66-340 199" id="aO"/><path fill="#6db1ff" d="M277-555c0 244 77 420 297 424 127 2 249-93 255-210h175C980-127 805 20 574 20 258 20 81-222 92-562c11-319 164-533 481-540 237-5 426 165 431 392H829c-7-133-115-242-256-240-209 4-296 166-296 395" id="aP"/><path fill="#6db1ff" d="M599-131c141 0 220-65 285-146l113 88C906-50 770 20 589 20 281 21 93-214 93-545c0-223 93-397 233-485 74-48 154-72 240-72 300 2 449 218 445 537v77H278c0 197 129 357 321 357zm227-509c-3-180-88-310-260-310-170 0-264 140-282 310h542" id="aQ"/><path fill="#6db1ff" d="M538-131c121 0 232-49 232-156 0-50-20-88-56-117-73-60-334-92-420-143-92-55-162-110-162-238 0-190 192-317 400-317 223 0 414 129 413 338H759c0-108-110-186-227-186-119 0-215 53-215 159 0 45 18 78 53 101 76 52 331 90 416 139 98 57 169 115 169 251C955-92 760 20 538 20c-176 0-314-68-386-174-38-55-57-115-57-179h185c6 129 116 202 258 202" id="aR"/><g id="d"><use transform="matrix(0.010416666666666668,0,0,0.010416666666666668,0,0)" xlink:href="#aO"/><use transform="matrix(0.010416666666666668,0,0,0.010416666666666668,11.604166666666668,0)" xlink:href="#aP"/><use transform="matrix(0.010416666666666668,0,0,0.010416666666666668,22.770833333333336,0)" xlink:href="#aP"/><use transform="matrix(0.010416666666666668,0,0,0.010416666666666668,33.9375,0)" xlink:href="#aQ"/><use transform="matrix(0.010416666666666668,0,0,0.010416666666666668,45.239583333333336,0)" xlink:href="#aR"/><use transform="matrix(0.010416666666666668,0,0,0.010416666666666668,56.23958333333334,0)" xlink:href="#aR"/></g><path fill="#6db1ff" d="M456 20C285 20 205-92 206-268v-671H9v-143h197v-262h185v262h202v143H391v671c-9 125 92 149 207 118V0c-49 13-96 20-142 20" id="aS"/><path fill="#6db1ff" d="M584 20C278 26 81-227 91-551c10-320 175-545 491-551 308-5 503 247 494 573-9 322-175 543-492 549zm-2-970c-208 0-305 185-305 421 0 216 106 398 307 398 211 0 307-186 307-420 0-214-109-399-309-399" id="aT"/><g id="e"><use transform="matrix(0.010416666666666668,0,0,0.010416666666666668,0,0)" xlink:href="#aS"/><use transform="matrix(0.010416666666666668,0,0,0.010416666666666668,6.760416666666668,0)" xlink:href="#aT"/></g><path fill="#6db1ff" d="M589-945c-131 0-219 81-264 174V0H140v-1082h175l6 136c83-104 191-156 324-156 229 0 346 129 346 387V0H806v-716c-2-153-65-229-217-229" id="aU"/><path fill="#6db1ff" d="M1098-255l208-827h185L1176 0h-150L763-820 507 0H357L43-1082h184l213 810 252-810h149" id="aV"/><path fill="#6db1ff" d="M663-916c-163-27-288 18-338 148V0H140v-1082h180l3 125c61-97 147-145 258-145 36 0 63 5 82 14v172" id="aW"/><path fill="#6db1ff" d="M442-501L326-380V0H141v-1536h185v929c135-169 291-317 436-475h225L566-630 1036 0H819" id="aX"/><g id="f"><use transform="matrix(0.010416666666666668,0,0,0.010416666666666668,0,0)" xlink:href="#aU"/><use transform="matrix(0.010416666666666668,0,0,0.010416666666666668,11.770833333333334,0)" xlink:href="#aQ"/><use transform="matrix(0.010416666666666668,0,0,0.010416666666666668,23.072916666666668,0)" xlink:href="#aS"/><use transform="matrix(0.010416666666666668,0,0,0.010416666666666668,30.04166666666667,0)" xlink:href="#aV"/><use transform="matrix(0.010416666666666668,0,0,0.010416666666666668,46.07291666666667,0)" xlink:href="#aT"/><use transform="matrix(0.010416666666666668,0,0,0.010416666666666668,58.23958333333334,0)" xlink:href="#aW"/><use transform="matrix(0.010416666666666668,0,0,0.010416666666666668,65.45833333333334,0)" xlink:href="#aX"/></g><path fill="#6db1ff" d="M497-251l268-831h189L566 0H425L33-1082h189" id="aY"/><path fill="#6db1ff" d="M341 0H156v-1082h185V0zm-91-1264c-68 0-108-42-109-105 0-62 41-107 109-107s110 44 110 107-42 105-110 105" id="aZ"/><g id="g"><use transform="matrix(0.010416666666666668,0,0,0.010416666666666668,0,0)" xlink:href="#aR"/><use transform="matrix(0.010416666666666668,0,0,0.010416666666666668,11.000000000000002,0)" xlink:href="#aQ"/><use transform="matrix(0.010416666666666668,0,0,0.010416666666666668,22.302083333333336,0)" xlink:href="#aW"/><use transform="matrix(0.010416666666666668,0,0,0.010416666666666668,29.708333333333336,0)" xlink:href="#aY"/><use transform="matrix(0.010416666666666668,0,0,0.010416666666666668,40.04166666666667,0)" xlink:href="#aZ"/><use transform="matrix(0.010416666666666668,0,0,0.010416666666666668,45.21875000000001,0)" xlink:href="#aP"/><use transform="matrix(0.010416666666666668,0,0,0.010416666666666668,56.38541666666667,0)" xlink:href="#aQ"/><use transform="matrix(0.010416666666666668,0,0,0.010416666666666668,67.6875,0)" xlink:href="#aR"/></g><path fill="#6db1ff" d="M704-1390c-164-38-297 28-288 194v114h231v143H416V0H231v-939H60v-143h171v-111c-12-274 208-416 483-347" id="ba"/><g id="h"><use transform="matrix(0.010416666666666668,0,0,0.010416666666666668,0,0)" xlink:href="#ba"/><use transform="matrix(0.010416666666666668,0,0,0.010416666666666668,7.406250000000001,0)" xlink:href="#aT"/><use transform="matrix(0.010416666666666668,0,0,0.010416666666666668,19.572916666666668,0)" xlink:href="#aW"/></g><path fill="#6db1ff" d="M632-1102c291 0 422 251 422 573 0 297-141 548-419 549-131 0-235-42-310-125v521H140v-1498h169l9 120c75-93 180-140 314-140zm-53 971c207 0 290-180 290-419 0-218-92-395-292-395-112 0-196 50-252 149v517c55 99 140 148 254 148" id="bb"/><path fill="#6db1ff" d="M341 0H156v-1536h185V0" id="bc"/><g id="i"><use transform="matrix(0.010416666666666668,0,0,0.010416666666666668,0,0)" xlink:href="#aO"/><use transform="matrix(0.010416666666666668,0,0,0.010416666666666668,11.604166666666668,0)" xlink:href="#bb"/><use transform="matrix(0.010416666666666668,0,0,0.010416666666666668,23.572916666666668,0)" xlink:href="#bb"/><use transform="matrix(0.010416666666666668,0,0,0.010416666666666668,35.54166666666667,0)" xlink:href="#bc"/><use transform="matrix(0.010416666666666668,0,0,0.010416666666666668,40.71875000000001,0)" xlink:href="#aZ"/><use transform="matrix(0.010416666666666668,0,0,0.010416666666666668,45.895833333333336,0)" xlink:href="#aP"/><use transform="matrix(0.010416666666666668,0,0,0.010416666666666668,57.062500000000014,0)" xlink:href="#aO"/><use transform="matrix(0.010416666666666668,0,0,0.010416666666666668,68.66666666666669,0)" xlink:href="#aS"/><use transform="matrix(0.010416666666666668,0,0,0.010416666666666668,75.63541666666669,0)" xlink:href="#aZ"/><use transform="matrix(0.010416666666666668,0,0,0.010416666666666668,80.81250000000001,0)" xlink:href="#aT"/><use transform="matrix(0.010416666666666668,0,0,0.010416666666666668,92.97916666666667,0)" xlink:href="#aU"/><use transform="matrix(0.010416666666666668,0,0,0.010416666666666668,104.75000000000001,0)" xlink:href="#aR"/></g><path fill="#6db1ff" d="M520 20C244 20 95-247 95-550c0-298 151-550 427-552 127 0 227 43 301 130v-564h185V0H838l-9-116C755-25 652 20 520 20zm48-965c-210 0-288 177-288 416 0 218 87 392 286 392 117 0 203-53 257-158v-497c-55-102-140-153-255-153" id="bd"/><g id="j"><use transform="matrix(0.010416666666666668,0,0,0.010416666666666668,0,0)" xlink:href="#aO"/><use transform="matrix(0.010416666666666668,0,0,0.010416666666666668,11.604166666666668,0)" xlink:href="#aU"/><use transform="matrix(0.010416666666666668,0,0,0.010416666666666668,23.374999999999996,0)" xlink:href="#bd"/></g><path fill="#6db1ff" d="M491 20c-241-1-355-148-355-398v-704h185v699c0 164 67 246 200 246 141 0 235-53 282-158v-787h185V0H812l-4-107C736-22 630 20 491 20" id="be"/><g id="k"><use transform="matrix(0.010416666666666668,0,0,0.010416666666666668,0,0)" xlink:href="#aR"/><use transform="matrix(0.010416666666666668,0,0,0.010416666666666668,11.000000000000002,0)" xlink:href="#be"/><use transform="matrix(0.010416666666666668,0,0,0.010416666666666668,22.760416666666668,0)" xlink:href="#bb"/><use transform="matrix(0.010416666666666668,0,0,0.010416666666666668,34.72916666666667,0)" xlink:href="#bb"/><use transform="matrix(0.010416666666666668,0,0,0.010416666666666668,46.69791666666667,0)" xlink:href="#aT"/><use transform="matrix(0.010416666666666668,0,0,0.010416666666666668,58.86458333333334,0)" xlink:href="#aW"/><use transform="matrix(0.010416666666666668,0,0,0.010416666666666668,66.60416666666669,0)" xlink:href="#aS"/><use transform="matrix(0.010416666666666668,0,0,0.010416666666666668,73.57291666666669,0)" xlink:href="#aR"/></g><g id="l"><use transform="matrix(0.010416666666666668,0,0,0.010416666666666668,0,0)" xlink:href="#be"/><use transform="matrix(0.010416666666666668,0,0,0.010416666666666668,11.760416666666668,0)" xlink:href="#aR"/><use transform="matrix(0.010416666666666668,0,0,0.010416666666666668,22.760416666666668,0)" xlink:href="#aQ"/><use transform="matrix(0.010416666666666668,0,0,0.010416666666666668,34.06250000000001,0)" xlink:href="#aW"/></g><g id="m"><use transform="matrix(0.010416666666666668,0,0,0.010416666666666668,0,0)" xlink:href="#aZ"/><use transform="matrix(0.010416666666666668,0,0,0.010416666666666668,5.177083333333334,0)" xlink:href="#aU"/><use transform="matrix(0.010416666666666668,0,0,0.010416666666666668,16.947916666666668,0)" xlink:href="#aS"/><use transform="matrix(0.010416666666666668,0,0,0.010416666666666668,23.916666666666668,0)" xlink:href="#aQ"/><use transform="matrix(0.010416666666666668,0,0,0.010416666666666668,35.21875,0)" xlink:href="#aW"/><use transform="matrix(0.010416666666666668,0,0,0.010416666666666668,42.020833333333336,0)" xlink:href="#aO"/><use transform="matrix(0.010416666666666668,0,0,0.010416666666666668,53.625,0)" xlink:href="#aP"/><use transform="matrix(0.010416666666666668,0,0,0.010416666666666668,64.79166666666667,0)" xlink:href="#aS"/><use transform="matrix(0.010416666666666668,0,0,0.010416666666666668,71.76041666666667,0)" xlink:href="#aZ"/><use transform="matrix(0.010416666666666668,0,0,0.010416666666666668,76.9375,0)" xlink:href="#aT"/><use transform="matrix(0.010416666666666668,0,0,0.010416666666666668,89.10416666666667,0)" xlink:href="#aU"/></g><path fill="#6db1ff" d="M589-945c-131 0-219 81-264 174V0H140v-1536h185v585c82-101 189-151 320-151 229 0 346 129 346 387V0H806v-716c-2-153-65-229-217-229" id="bf"/><g id="n"><use transform="matrix(0.010416666666666668,0,0,0.010416666666666668,0,0)" xlink:href="#aV"/><use transform="matrix(0.010416666666666668,0,0,0.010416666666666668,16.031250000000004,0)" xlink:href="#aZ"/><use transform="matrix(0.010416666666666668,0,0,0.010416666666666668,21.208333333333336,0)" xlink:href="#aS"/><use transform="matrix(0.010416666666666668,0,0,0.010416666666666668,28.177083333333336,0)" xlink:href="#bf"/></g><g id="o"><use transform="matrix(0.010416666666666668,0,0,0.010416666666666668,0,0)" xlink:href="#aS"/><use transform="matrix(0.010416666666666668,0,0,0.010416666666666668,6.968750000000001,0)" xlink:href="#bf"/><use transform="matrix(0.010416666666666668,0,0,0.010416666666666668,18.718750000000004,0)" xlink:href="#aQ"/></g><path fill="#6db1ff" d="M258 11c-71 0-114-43-114-108 0-67 42-112 114-112s116 45 116 112c-1 65-45 108-116 108" id="bg"/><g id="p"><use transform="matrix(0.010416666666666668,0,0,0.010416666666666668,0,0)" xlink:href="#aU"/><use transform="matrix(0.010416666666666668,0,0,0.010416666666666668,11.770833333333334,0)" xlink:href="#aQ"/><use transform="matrix(0.010416666666666668,0,0,0.010416666666666668,23.072916666666668,0)" xlink:href="#aS"/><use transform="matrix(0.010416666666666668,0,0,0.010416666666666668,30.04166666666667,0)" xlink:href="#aV"/><use transform="matrix(0.010416666666666668,0,0,0.010416666666666668,46.07291666666667,0)" xlink:href="#aT"/><use transform="matrix(0.010416666666666668,0,0,0.010416666666666668,58.23958333333334,0)" xlink:href="#aW"/><use transform="matrix(0.010416666666666668,0,0,0.010416666666666668,65.45833333333334,0)" xlink:href="#aX"/><use transform="matrix(0.010416666666666668,0,0,0.010416666666666668,76.27083333333334,0)" xlink:href="#bg"/></g><path d="M115-159c48 0 72 30 72 78 0 54-30 85-83 85-64 0-91-50-91-122 0-98 58-163 141-120 15 8 21 24 27 44l-47 6c-5-31-48-31-61-4-7 14-11 33-11 60 9-17 28-27 53-27zM102-35c24 0 36-20 36-45s-11-43-37-43c-23 0-36 14-36 38 0 27 11 50 37 50" id="bh"/><use transform="matrix(0.05,0,0,0.05,0,0)" xlink:href="#bh" id="q"/><path d="M24-248c93 1 206-16 204 79-1 75-69 88-152 82V0H24v-248zm52 121c47 0 100 7 100-41 0-47-54-39-100-39v80" id="bi"/><path d="M137-138c1-29-70-34-71-4 15 46 118 7 119 86 1 83-164 76-172 9l43-7c4 19 20 25 44 25 33 8 57-30 24-41C81-84 22-81 20-136c-2-80 154-74 161-7" id="bj"/><g id="r"><use transform="matrix(0.07469135802469135,0,0,0.07469135802469135,0,0)" xlink:href="#bi"/><use transform="matrix(0.07469135802469135,0,0,0.07469135802469135,17.925925925925924,0)" xlink:href="#aD"/><use transform="matrix(0.07469135802469135,0,0,0.07469135802469135,28.38271604938271,0)" xlink:href="#aC"/><use transform="matrix(0.07469135802469135,0,0,0.07469135802469135,43.32098765432098,0)" xlink:href="#bj"/><use transform="matrix(0.07469135802469135,0,0,0.07469135802469135,58.25925925925925,0)" xlink:href="#aC"/><use transform="matrix(0.07469135802469135,0,0,0.07469135802469135,73.19753086419752,0)" xlink:href="#aN"/><use transform="matrix(0.07469135802469135,0,0,0.07469135802469135,89.55493827160493,0)" xlink:href="#aL"/><use transform="matrix(0.07469135802469135,0,0,0.07469135802469135,98.4432098765432,0)" xlink:href="#aA"/><use transform="matrix(0.07469135802469135,0,0,0.07469135802469135,113.38148148148146,0)" xlink:href="#aL"/><use transform="matrix(0.07469135802469135,0,0,0.07469135802469135,122.26975308641973,0)" xlink:href="#aJ"/><use transform="matrix(0.07469135802469135,0,0,0.07469135802469135,129.73888888888885,0)" xlink:href="#aM"/><use transform="matrix(0.07469135802469135,0,0,0.07469135802469135,146.09629629629626,0)" xlink:href="#aN"/></g><path fill="#6db1ff" d="M972-643H361V0H169v-1456h902v158H361v498h611v157" id="bk"/><path fill="#6db1ff" d="M1240-945c-141 0-250 95-250 227V0H804v-709c0-157-77-236-231-236-121 0-204 52-249 155V0H139v-1082h175l5 120c79-93 186-140 321-140 151 0 254 58 309 174 69-98 181-174 345-174 237 0 362 126 362 377V0h-185v-714c-2-159-67-231-231-231" id="bl"/><g id="s"><use transform="matrix(0.010416666666666668,0,0,0.010416666666666668,0,0)" xlink:href="#bk"/><use transform="matrix(0.010416666666666668,0,0,0.010416666666666668,11.572916666666668,0)" xlink:href="#aT"/><use transform="matrix(0.010416666666666668,0,0,0.010416666666666668,23.739583333333336,0)" xlink:href="#aW"/><use transform="matrix(0.010416666666666668,0,0,0.010416666666666668,30.958333333333336,0)" xlink:href="#bl"/><use transform="matrix(0.010416666666666668,0,0,0.010416666666666668,49.65624999999999,0)" xlink:href="#aO"/><use transform="matrix(0.010416666666666668,0,0,0.010416666666666668,61.26041666666667,0)" xlink:href="#aS"/><use transform="matrix(0.010416666666666668,0,0,0.010416666666666668,68.22916666666667,0)" xlink:href="#aR"/></g><g id="t"><use transform="matrix(0.010416666666666668,0,0,0.010416666666666668,0,0)" xlink:href="#bd"/><use transform="matrix(0.010416666666666668,0,0,0.010416666666666668,12.031250000000002,0)" xlink:href="#aO"/><use transform="matrix(0.010416666666666668,0,0,0.010416666666666668,23.635416666666668,0)" xlink:href="#aS"/><use transform="matrix(0.010416666666666668,0,0,0.010416666666666668,30.60416666666667,0)" xlink:href="#aO"/></g><g id="u"><use transform="matrix(0.010416666666666668,0,0,0.010416666666666668,0,0)" xlink:href="#ba"/><use transform="matrix(0.010416666666666668,0,0,0.010416666666666668,7.406250000000001,0)" xlink:href="#aT"/><use transform="matrix(0.010416666666666668,0,0,0.010416666666666668,19.572916666666668,0)" xlink:href="#aW"/></g><g id="v"><use transform="matrix(0.010416666666666668,0,0,0.010416666666666668,0,0)" xlink:href="#bb"/><use transform="matrix(0.010416666666666668,0,0,0.010416666666666668,11.968750000000002,0)" xlink:href="#aW"/><use transform="matrix(0.010416666666666668,0,0,0.010416666666666668,18.989583333333336,0)" xlink:href="#aQ"/><use transform="matrix(0.010416666666666668,0,0,0.010416666666666668,30.29166666666667,0)" xlink:href="#aR"/><use transform="matrix(0.010416666666666668,0,0,0.010416666666666668,41.29166666666667,0)" xlink:href="#aQ"/><use transform="matrix(0.010416666666666668,0,0,0.010416666666666668,52.59375000000001,0)" xlink:href="#aU"/><use transform="matrix(0.010416666666666668,0,0,0.010416666666666668,64.36458333333334,0)" xlink:href="#aS"/><use transform="matrix(0.010416666666666668,0,0,0.010416666666666668,71.33333333333334,0)" xlink:href="#aO"/><use transform="matrix(0.010416666666666668,0,0,0.010416666666666668,82.93750000000001,0)" xlink:href="#aS"/><use transform="matrix(0.010416666666666668,0,0,0.010416666666666668,89.90625000000001,0)" xlink:href="#aZ"/><use transform="matrix(0.010416666666666668,0,0,0.010416666666666668,95.08333333333334,0)" xlink:href="#aT"/><use transform="matrix(0.010416666666666668,0,0,0.010416666666666668,107.25000000000001,0)" xlink:href="#aU"/></g><g id="w"><use transform="matrix(0.010416666666666668,0,0,0.010416666666666668,0,0)" xlink:href="#aS"/><use transform="matrix(0.010416666666666668,0,0,0.010416666666666668,6.760416666666668,0)" xlink:href="#aT"/></g><g id="x"><use transform="matrix(0.010416666666666668,0,0,0.010416666666666668,0,0)" xlink:href="#bb"/><use transform="matrix(0.010416666666666668,0,0,0.010416666666666668,11.968750000000002,0)" xlink:href="#aW"/><use transform="matrix(0.010416666666666668,0,0,0.010416666666666668,18.979166666666668,0)" xlink:href="#aT"/><use transform="matrix(0.010416666666666668,0,0,0.010416666666666668,30.989583333333336,0)" xlink:href="#aY"/><use transform="matrix(0.010416666666666668,0,0,0.010416666666666668,41.32291666666667,0)" xlink:href="#aZ"/><use transform="matrix(0.010416666666666668,0,0,0.010416666666666668,46.50000000000001,0)" xlink:href="#bd"/><use transform="matrix(0.010416666666666668,0,0,0.010416666666666668,58.53125000000001,0)" xlink:href="#aQ"/><use transform="matrix(0.010416666666666668,0,0,0.010416666666666668,69.83333333333334,0)" xlink:href="#aR"/></g><g id="y"><use transform="matrix(0.010416666666666668,0,0,0.010416666666666668,0,0)" xlink:href="#bd"/><use transform="matrix(0.010416666666666668,0,0,0.010416666666666668,12.031250000000002,0)" xlink:href="#aO"/><use transform="matrix(0.010416666666666668,0,0,0.010416666666666668,23.635416666666668,0)" xlink:href="#aS"/><use transform="matrix(0.010416666666666668,0,0,0.010416666666666668,30.60416666666667,0)" xlink:href="#aO"/></g><path fill="#6db1ff" d="M494-271l252-811h198L509 167C425 381 299 474 84 421V271c167 16 242-37 283-173l41-110L22-1082h202" id="bm"/><g id="z"><use transform="matrix(0.010416666666666668,0,0,0.010416666666666668,0,0)" xlink:href="#aQ"/><use transform="matrix(0.010416666666666668,0,0,0.010416666666666668,11.302083333333334,0)" xlink:href="#aU"/><use transform="matrix(0.010416666666666668,0,0,0.010416666666666668,23.072916666666668,0)" xlink:href="#aP"/><use transform="matrix(0.010416666666666668,0,0,0.010416666666666668,34.239583333333336,0)" xlink:href="#aW"/><use transform="matrix(0.010416666666666668,0,0,0.010416666666666668,41.645833333333336,0)" xlink:href="#bm"/><use transform="matrix(0.010416666666666668,0,0,0.010416666666666668,51.739583333333336,0)" xlink:href="#bb"/><use transform="matrix(0.010416666666666668,0,0,0.010416666666666668,63.70833333333334,0)" xlink:href="#aS"/><use transform="matrix(0.010416666666666668,0,0,0.010416666666666668,70.67708333333334,0)" xlink:href="#aZ"/><use transform="matrix(0.010416666666666668,0,0,0.010416666666666668,75.85416666666667,0)" xlink:href="#aT"/><use transform="matrix(0.010416666666666668,0,0,0.010416666666666668,88.02083333333334,0)" xlink:href="#aU"/></g><g id="A"><use transform="matrix(0.010416666666666668,0,0,0.010416666666666668,0,0)" xlink:href="#aP"/><use transform="matrix(0.010416666666666668,0,0,0.010416666666666668,11.166666666666668,0)" xlink:href="#aT"/><use transform="matrix(0.010416666666666668,0,0,0.010416666666666668,23.333333333333336,0)" xlink:href="#bl"/><use transform="matrix(0.010416666666666668,0,0,0.010416666666666668,42.03125,0)" xlink:href="#bb"/><use transform="matrix(0.010416666666666668,0,0,0.010416666666666668,54,0)" xlink:href="#aW"/><use transform="matrix(0.010416666666666668,0,0,0.010416666666666668,61.02083333333334,0)" xlink:href="#aQ"/><use transform="matrix(0.010416666666666668,0,0,0.010416666666666668,72.32291666666667,0)" xlink:href="#aR"/><use transform="matrix(0.010416666666666668,0,0,0.010416666666666668,83.32291666666667,0)" xlink:href="#aR"/><use transform="matrix(0.010416666666666668,0,0,0.010416666666666668,94.32291666666667,0)" xlink:href="#aZ"/><use transform="matrix(0.010416666666666668,0,0,0.010416666666666668,99.49999999999999,0)" xlink:href="#aT"/><use transform="matrix(0.010416666666666668,0,0,0.010416666666666668,111.66666666666669,0)" xlink:href="#aU"/><use transform="matrix(0.010416666666666668,0,0,0.010416666666666668,123.4375,0)" xlink:href="#bg"/></g><path d="M139-81c0-46-55-55-73-27H18l9-140h149v37H72l-4 63c44-38 133-4 122 66C201 21 21 35 11-62l49-4c5 18 15 30 39 30 26 0 40-18 40-45" id="bn"/><use transform="matrix(0.05,0,0,0.05,0,0)" xlink:href="#bn" id="B"/><path d="M169-182c-1-43-94-46-97-3 18 66 151 10 154 114 3 95-165 93-204 36-6-8-10-19-12-30l50-8c3 46 112 56 116 5-17-69-150-10-154-114-4-87 153-88 188-35 5 8 8 18 10 28" id="bo"/><g id="C"><use transform="matrix(0.07469135802469135,0,0,0.07469135802469135,0,0)" xlink:href="#bo"/><use transform="matrix(0.07469135802469135,0,0,0.07469135802469135,17.925925925925924,0)" xlink:href="#aC"/><use transform="matrix(0.07469135802469135,0,0,0.07469135802469135,32.86419753086419,0)" xlink:href="#bj"/><use transform="matrix(0.07469135802469135,0,0,0.07469135802469135,47.802469135802454,0)" xlink:href="#bj"/><use transform="matrix(0.07469135802469135,0,0,0.07469135802469135,62.74074074074072,0)" xlink:href="#aJ"/><use transform="matrix(0.07469135802469135,0,0,0.07469135802469135,70.20987654320986,0)" xlink:href="#aM"/><use transform="matrix(0.07469135802469135,0,0,0.07469135802469135,86.56728395061727,0)" xlink:href="#aN"/></g><path fill="#6db1ff" d="M992-673H361v516h733V0H169v-1456h915v158H361v468h631v157" id="bp"/><path fill="#6db1ff" d="M634-1102c292 0 422 254 422 573 0 298-143 547-420 549-137 0-242-48-317-145L310 0H140v-1536h185v573c75-93 178-139 309-139zm-44 965c207 0 281-175 281-413 0-224-79-395-283-395-122 0-210 57-263 170v468c57 113 145 170 265 170" id="bq"/><path fill="#6db1ff" d="M134 290L29 218c97-132 105-239 98-437h181c1 144 5 239-50 347-34 67-74 121-124 162" id="br"/><g id="D"><use transform="matrix(0.010416666666666668,0,0,0.010416666666666668,0,0)" xlink:href="#bp"/><use transform="matrix(0.010416666666666668,0,0,0.010416666666666668,12.125000000000002,0)" xlink:href="#aR"/><use transform="matrix(0.010416666666666668,0,0,0.010416666666666668,23.125000000000004,0)" xlink:href="#aS"/><use transform="matrix(0.010416666666666668,0,0,0.010416666666666668,30.093750000000004,0)" xlink:href="#aO"/><use transform="matrix(0.010416666666666668,0,0,0.010416666666666668,41.69791666666667,0)" xlink:href="#bq"/><use transform="matrix(0.010416666666666668,0,0,0.010416666666666668,53.66666666666667,0)" xlink:href="#bc"/><use transform="matrix(0.010416666666666668,0,0,0.010416666666666668,58.84375000000001,0)" xlink:href="#aZ"/><use transform="matrix(0.010416666666666668,0,0,0.010416666666666668,64.02083333333334,0)" xlink:href="#aR"/><use transform="matrix(0.010416666666666668,0,0,0.010416666666666668,75.02083333333334,0)" xlink:href="#bf"/><use transform="matrix(0.010416666666666668,0,0,0.010416666666666668,86.77083333333334,0)" xlink:href="#aQ"/><use transform="matrix(0.010416666666666668,0,0,0.010416666666666668,98.07291666666667,0)" xlink:href="#aR"/><use transform="matrix(0.010416666666666668,0,0,0.010416666666666668,109.07291666666669,0)" xlink:href="#br"/></g><path fill="#6db1ff" d="M521 20C240 20 96-239 96-550c0-303 147-552 427-552 132 0 235 47 309 140l9-120h169V-26c4 277-183 454-459 452-165-1-334-81-400-187l96-111c79 98 176 147 291 147 180 1 288-109 286-290v-93C750-23 649 20 521 20zm48-965c-209 0-287 178-287 416 0 217 86 392 285 392 117 0 202-53 257-159v-494c-57-103-142-155-255-155" id="bs"/><g id="E"><use transform="matrix(0.010416666666666668,0,0,0.010416666666666668,0,0)" xlink:href="#bl"/><use transform="matrix(0.010416666666666668,0,0,0.010416666666666668,18.697916666666668,0)" xlink:href="#aO"/><use transform="matrix(0.010416666666666668,0,0,0.010416666666666668,30.302083333333336,0)" xlink:href="#aU"/><use transform="matrix(0.010416666666666668,0,0,0.010416666666666668,42.07291666666667,0)" xlink:href="#aO"/><use transform="matrix(0.010416666666666668,0,0,0.010416666666666668,53.67708333333334,0)" xlink:href="#bs"/><use transform="matrix(0.010416666666666668,0,0,0.010416666666666668,65.64583333333334,0)" xlink:href="#aQ"/><use transform="matrix(0.010416666666666668,0,0,0.010416666666666668,76.94791666666667,0)" xlink:href="#aR"/><use transform="matrix(0.010416666666666668,0,0,0.010416666666666668,87.94791666666667,0)" xlink:href="#br"/></g><g id="F"><use transform="matrix(0.010416666666666668,0,0,0.010416666666666668,0,0)" xlink:href="#aO"/><use transform="matrix(0.010416666666666668,0,0,0.010416666666666668,11.604166666666668,0)" xlink:href="#aU"/><use transform="matrix(0.010416666666666668,0,0,0.010416666666666668,23.374999999999996,0)" xlink:href="#bd"/></g><g id="G"><use transform="matrix(0.010416666666666668,0,0,0.010416666666666668,0,0)" xlink:href="#aS"/><use transform="matrix(0.010416666666666668,0,0,0.010416666666666668,6.968750000000001,0)" xlink:href="#aQ"/><use transform="matrix(0.010416666666666668,0,0,0.010416666666666668,18.270833333333336,0)" xlink:href="#aW"/><use transform="matrix(0.010416666666666668,0,0,0.010416666666666668,25.489583333333336,0)" xlink:href="#bl"/><use transform="matrix(0.010416666666666668,0,0,0.010416666666666668,44.18749999999999,0)" xlink:href="#aZ"/><use transform="matrix(0.010416666666666668,0,0,0.010416666666666668,49.364583333333336,0)" xlink:href="#aU"/><use transform="matrix(0.010416666666666668,0,0,0.010416666666666668,61.13541666666667,0)" xlink:href="#aO"/><use transform="matrix(0.010416666666666668,0,0,0.010416666666666668,72.73958333333334,0)" xlink:href="#aS"/><use transform="matrix(0.010416666666666668,0,0,0.010416666666666668,79.70833333333334,0)" xlink:href="#aQ"/><use transform="matrix(0.010416666666666668,0,0,0.010416666666666668,91.01041666666667,0)" xlink:href="#aR"/></g><g id="H"><use transform="matrix(0.010416666666666668,0,0,0.010416666666666668,0,0)" xlink:href="#aP"/><use transform="matrix(0.010416666666666668,0,0,0.010416666666666668,11.166666666666668,0)" xlink:href="#aT"/><use transform="matrix(0.010416666666666668,0,0,0.010416666666666668,23.333333333333336,0)" xlink:href="#aU"/><use transform="matrix(0.010416666666666668,0,0,0.010416666666666668,35.10416666666667,0)" xlink:href="#aU"/><use transform="matrix(0.010416666666666668,0,0,0.010416666666666668,46.87500000000001,0)" xlink:href="#aQ"/><use transform="matrix(0.010416666666666668,0,0,0.010416666666666668,58.17708333333334,0)" xlink:href="#aP"/><use transform="matrix(0.010416666666666668,0,0,0.010416666666666668,69.34375000000001,0)" xlink:href="#aS"/><use transform="matrix(0.010416666666666668,0,0,0.010416666666666668,76.31250000000001,0)" xlink:href="#aZ"/><use transform="matrix(0.010416666666666668,0,0,0.010416666666666668,81.48958333333334,0)" xlink:href="#aT"/><use transform="matrix(0.010416666666666668,0,0,0.010416666666666668,93.65625000000001,0)" xlink:href="#aU"/><use transform="matrix(0.010416666666666668,0,0,0.010416666666666668,105.42708333333334,0)" xlink:href="#aR"/></g><g id="I"><use transform="matrix(0.010416666666666668,0,0,0.010416666666666668,0,0)" xlink:href="#bq"/><use transform="matrix(0.010416666666666668,0,0,0.010416666666666668,11.968750000000002,0)" xlink:href="#aQ"/><use transform="matrix(0.010416666666666668,0,0,0.010416666666666668,23.270833333333336,0)" xlink:href="#aS"/><use transform="matrix(0.010416666666666668,0,0,0.010416666666666668,30.239583333333336,0)" xlink:href="#aV"/><use transform="matrix(0.010416666666666668,0,0,0.010416666666666668,46.270833333333336,0)" xlink:href="#aQ"/><use transform="matrix(0.010416666666666668,0,0,0.010416666666666668,57.572916666666686,0)" xlink:href="#aQ"/><use transform="matrix(0.010416666666666668,0,0,0.010416666666666668,68.87500000000001,0)" xlink:href="#aU"/></g><g id="J"><use transform="matrix(0.010416666666666668,0,0,0.010416666666666668,0,0)" xlink:href="#aO"/><use transform="matrix(0.010416666666666668,0,0,0.010416666666666668,11.604166666666668,0)" xlink:href="#bb"/><use transform="matrix(0.010416666666666668,0,0,0.010416666666666668,23.572916666666668,0)" xlink:href="#bb"/><use transform="matrix(0.010416666666666668,0,0,0.010416666666666668,35.54166666666667,0)" xlink:href="#bc"/><use transform="matrix(0.010416666666666668,0,0,0.010416666666666668,40.71875000000001,0)" xlink:href="#aZ"/><use transform="matrix(0.010416666666666668,0,0,0.010416666666666668,45.895833333333336,0)" xlink:href="#aP"/><use transform="matrix(0.010416666666666668,0,0,0.010416666666666668,57.062500000000014,0)" xlink:href="#aO"/><use transform="matrix(0.010416666666666668,0,0,0.010416666666666668,68.66666666666669,0)" xlink:href="#aS"/><use transform="matrix(0.010416666666666668,0,0,0.010416666666666668,75.63541666666669,0)" xlink:href="#aZ"/><use transform="matrix(0.010416666666666668,0,0,0.010416666666666668,80.81250000000001,0)" xlink:href="#aT"/><use transform="matrix(0.010416666666666668,0,0,0.010416666666666668,92.97916666666667,0)" xlink:href="#aU"/><use transform="matrix(0.010416666666666668,0,0,0.010416666666666668,104.75000000000001,0)" xlink:href="#aR"/><use transform="matrix(0.010416666666666668,0,0,0.010416666666666668,115.75000000000001,0)" xlink:href="#bg"/></g><path d="M165-50V0h-47v-50H5v-38l105-160h55v161h33v37h-33zm-47-37l2-116L46-87h72" id="bt"/><use transform="matrix(0.05,0,0,0.05,0,0)" xlink:href="#bt" id="K"/><path d="M136-208V0H84v-208H4v-40h212v40h-80" id="bu"/><g id="L"><use transform="matrix(0.07469135802469135,0,0,0.07469135802469135,0,0)" xlink:href="#bu"/><use transform="matrix(0.07469135802469135,0,0,0.07469135802469135,14.863580246913576,0)" xlink:href="#aD"/><use transform="matrix(0.07469135802469135,0,0,0.07469135802469135,25.320370370370362,0)" xlink:href="#aA"/><use transform="matrix(0.07469135802469135,0,0,0.07469135802469135,40.258641975308635,0)" xlink:href="#aN"/><use transform="matrix(0.07469135802469135,0,0,0.07469135802469135,56.61604938271604,0)" xlink:href="#bj"/><use transform="matrix(0.07469135802469135,0,0,0.07469135802469135,71.55432098765431,0)" xlink:href="#aH"/><use transform="matrix(0.07469135802469135,0,0,0.07469135802469135,87.91172839506171,0)" xlink:href="#aM"/><use transform="matrix(0.07469135802469135,0,0,0.07469135802469135,104.26913580246912,0)" xlink:href="#aD"/><use transform="matrix(0.07469135802469135,0,0,0.07469135802469135,114.7259259259259,0)" xlink:href="#aL"/></g><path fill="#6db1ff" d="M1216-1011c-1 297-202 441-512 441H361V0H169v-1456h537c297-6 510 164 510 445zm-192 2c1-178-126-288-307-289H361v571h345c196 1 318-92 318-282" id="bv"/><g id="M"><use transform="matrix(0.010416666666666668,0,0,0.010416666666666668,0,0)" xlink:href="#bv"/><use transform="matrix(0.010416666666666668,0,0,0.010416666666666668,13.458333333333336,0)" xlink:href="#aW"/><use transform="matrix(0.010416666666666668,0,0,0.010416666666666668,20.468750000000004,0)" xlink:href="#aT"/><use transform="matrix(0.010416666666666668,0,0,0.010416666666666668,32.47916666666667,0)" xlink:href="#aY"/><use transform="matrix(0.010416666666666668,0,0,0.010416666666666668,42.81250000000001,0)" xlink:href="#aZ"/><use transform="matrix(0.010416666666666668,0,0,0.010416666666666668,47.989583333333336,0)" xlink:href="#bd"/><use transform="matrix(0.010416666666666668,0,0,0.010416666666666668,60.02083333333334,0)" xlink:href="#aQ"/><use transform="matrix(0.010416666666666668,0,0,0.010416666666666668,71.32291666666667,0)" xlink:href="#aR"/></g><g id="N"><use transform="matrix(0.010416666666666668,0,0,0.010416666666666668,0,0)" xlink:href="#aW"/><use transform="matrix(0.010416666666666668,0,0,0.010416666666666668,7.020833333333334,0)" xlink:href="#aQ"/><use transform="matrix(0.010416666666666668,0,0,0.010416666666666668,18.322916666666668,0)" xlink:href="#bc"/><use transform="matrix(0.010416666666666668,0,0,0.010416666666666668,23.499999999999996,0)" xlink:href="#aZ"/><use transform="matrix(0.010416666666666668,0,0,0.010416666666666668,28.677083333333336,0)" xlink:href="#aO"/><use transform="matrix(0.010416666666666668,0,0,0.010416666666666668,40.28125,0)" xlink:href="#bq"/><use transform="matrix(0.010416666666666668,0,0,0.010416666666666668,52.24999999999999,0)" xlink:href="#bc"/><use transform="matrix(0.010416666666666668,0,0,0.010416666666666668,57.42708333333334,0)" xlink:href="#aQ"/></g><path fill="#6db1ff" d="M525-543H37v-151h488v151" id="bw"/><g id="O"><use transform="matrix(0.010416666666666668,0,0,0.010416666666666668,0,0)" xlink:href="#aQ"/><use transform="matrix(0.010416666666666668,0,0,0.010416666666666668,11.302083333333334,0)" xlink:href="#aU"/><use transform="matrix(0.010416666666666668,0,0,0.010416666666666668,23.072916666666668,0)" xlink:href="#bd"/><use transform="matrix(0.010416666666666668,0,0,0.010416666666666668,35.10416666666667,0)" xlink:href="#bw"/><use transform="matrix(0.010416666666666668,0,0,0.010416666666666668,40.989583333333336,0)" xlink:href="#aS"/><use transform="matrix(0.010416666666666668,0,0,0.010416666666666668,47.74999999999999,0)" xlink:href="#aT"/><use transform="matrix(0.010416666666666668,0,0,0.010416666666666668,59.91666666666667,0)" xlink:href="#bw"/><use transform="matrix(0.010416666666666668,0,0,0.010416666666666668,65.80208333333334,0)" xlink:href="#aQ"/><use transform="matrix(0.010416666666666668,0,0,0.010416666666666668,77.10416666666667,0)" xlink:href="#aU"/><use transform="matrix(0.010416666666666668,0,0,0.010416666666666668,88.87499999999999,0)" xlink:href="#bd"/></g><g id="P"><use transform="matrix(0.010416666666666668,0,0,0.010416666666666668,0,0)" xlink:href="#bd"/><use transform="matrix(0.010416666666666668,0,0,0.010416666666666668,12.031250000000002,0)" xlink:href="#aQ"/><use transform="matrix(0.010416666666666668,0,0,0.010416666666666668,23.333333333333336,0)" xlink:href="#bc"/><use transform="matrix(0.010416666666666668,0,0,0.010416666666666668,28.51041666666667,0)" xlink:href="#aZ"/><use transform="matrix(0.010416666666666668,0,0,0.010416666666666668,33.68750000000001,0)" xlink:href="#aY"/><use transform="matrix(0.010416666666666668,0,0,0.010416666666666668,43.88541666666668,0)" xlink:href="#aQ"/><use transform="matrix(0.010416666666666668,0,0,0.010416666666666668,55.187500000000014,0)" xlink:href="#aW"/><use transform="matrix(0.010416666666666668,0,0,0.010416666666666668,62.593750000000014,0)" xlink:href="#bm"/></g><g id="Q"><use transform="matrix(0.010416666666666668,0,0,0.010416666666666668,0,0)" xlink:href="#aT"/><use transform="matrix(0.010416666666666668,0,0,0.010416666666666668,12.166666666666668,0)" xlink:href="#ba"/></g><g id="R"><use transform="matrix(0.010416666666666668,0,0,0.010416666666666668,0,0)" xlink:href="#aQ"/><use transform="matrix(0.010416666666666668,0,0,0.010416666666666668,11.302083333333334,0)" xlink:href="#aW"/><use transform="matrix(0.010416666666666668,0,0,0.010416666666666668,18.520833333333336,0)" xlink:href="#aW"/><use transform="matrix(0.010416666666666668,0,0,0.010416666666666668,25.531250000000004,0)" xlink:href="#aT"/><use transform="matrix(0.010416666666666668,0,0,0.010416666666666668,37.69791666666667,0)" xlink:href="#aW"/></g><g id="S"><use transform="matrix(0.010416666666666668,0,0,0.010416666666666668,0,0)" xlink:href="#aW"/><use transform="matrix(0.010416666666666668,0,0,0.010416666666666668,7.020833333333334,0)" xlink:href="#aQ"/><use transform="matrix(0.010416666666666668,0,0,0.010416666666666668,18.322916666666668,0)" xlink:href="#aP"/><use transform="matrix(0.010416666666666668,0,0,0.010416666666666668,29.489583333333336,0)" xlink:href="#aT"/><use transform="matrix(0.010416666666666668,0,0,0.010416666666666668,41.5,0)" xlink:href="#aY"/><use transform="matrix(0.010416666666666668,0,0,0.010416666666666668,51.69791666666667,0)" xlink:href="#aQ"/><use transform="matrix(0.010416666666666668,0,0,0.010416666666666668,63.00000000000001,0)" xlink:href="#aW"/><use transform="matrix(0.010416666666666668,0,0,0.010416666666666668,70.40625000000001,0)" xlink:href="#bm"/></g><g id="T"><use transform="matrix(0.010416666666666668,0,0,0.010416666666666668,0,0)" xlink:href="#ba"/><use transform="matrix(0.010416666666666668,0,0,0.010416666666666668,7.406250000000001,0)" xlink:href="#bc"/><use transform="matrix(0.010416666666666668,0,0,0.010416666666666668,12.583333333333334,0)" xlink:href="#aT"/><use transform="matrix(0.010416666666666668,0,0,0.010416666666666668,24.750000000000004,0)" xlink:href="#aV"/></g><g id="U"><use transform="matrix(0.010416666666666668,0,0,0.010416666666666668,0,0)" xlink:href="#aP"/><use transform="matrix(0.010416666666666668,0,0,0.010416666666666668,11.166666666666668,0)" xlink:href="#aT"/><use transform="matrix(0.010416666666666668,0,0,0.010416666666666668,23.333333333333336,0)" xlink:href="#aU"/><use transform="matrix(0.010416666666666668,0,0,0.010416666666666668,35.10416666666667,0)" xlink:href="#aS"/><use transform="matrix(0.010416666666666668,0,0,0.010416666666666668,42.07291666666667,0)" xlink:href="#aW"/><use transform="matrix(0.010416666666666668,0,0,0.010416666666666668,49.083333333333336,0)" xlink:href="#aT"/><use transform="matrix(0.010416666666666668,0,0,0.010416666666666668,61.25,0)" xlink:href="#bc"/><use transform="matrix(0.010416666666666668,0,0,0.010416666666666668,66.42708333333333,0)" xlink:href="#bg"/></g><path d="M128-127c34 4 56 21 59 58 7 91-148 94-172 28-4-9-6-17-7-26l51-5c1 24 16 35 40 36 23 0 39-12 38-36-1-31-31-36-65-34v-40c32 2 59-3 59-33 0-20-13-33-34-33s-33 13-35 32l-50-3c6-44 37-68 86-68 50 0 83 20 83 66 0 35-22 52-53 58" id="bx"/><use transform="matrix(0.05,0,0,0.05,0,0)" xlink:href="#bx" id="V"/><path d="M175 0L67-191c6 58 2 128 3 191H24v-248h59L193-55c-6-58-2-129-3-193h46V0h-61" id="by"/><path d="M231 0h-52l-39-155L100 0H48L-1-190h46L77-45c9-52 24-97 36-145h53l37 145 32-145h46" id="bz"/><path d="M147 0L96-86 75-71V0H25v-261h50v150l67-79h53l-66 74L201 0h-54" id="bA"/><g id="W"><use transform="matrix(0.07469135802469135,0,0,0.07469135802469135,0,0)" xlink:href="#by"/><use transform="matrix(0.07469135802469135,0,0,0.07469135802469135,19.34506172839506,0)" xlink:href="#aC"/><use transform="matrix(0.07469135802469135,0,0,0.07469135802469135,34.28333333333333,0)" xlink:href="#aL"/><use transform="matrix(0.07469135802469135,0,0,0.07469135802469135,43.1716049382716,0)" xlink:href="#bz"/><use transform="matrix(0.07469135802469135,0,0,0.07469135802469135,64.08518518518517,0)" xlink:href="#aM"/><use transform="matrix(0.07469135802469135,0,0,0.07469135802469135,80.44259259259258,0)" xlink:href="#aD"/><use transform="matrix(0.07469135802469135,0,0,0.07469135802469135,90.89938271604937,0)" xlink:href="#bA"/></g><g id="X"><use transform="matrix(0.010416666666666668,0,0,0.010416666666666668,0,0)" xlink:href="#bc"/><use transform="matrix(0.010416666666666668,0,0,0.010416666666666668,5.177083333333334,0)" xlink:href="#aT"/><use transform="matrix(0.010416666666666668,0,0,0.010416666666666668,17.34375,0)" xlink:href="#bs"/><use transform="matrix(0.010416666666666668,0,0,0.010416666666666668,29.3125,0)" xlink:href="#aZ"/><use transform="matrix(0.010416666666666668,0,0,0.010416666666666668,34.489583333333336,0)" xlink:href="#aP"/><use transform="matrix(0.010416666666666668,0,0,0.010416666666666668,45.65624999999999,0)" xlink:href="#aO"/><use transform="matrix(0.010416666666666668,0,0,0.010416666666666668,57.26041666666667,0)" xlink:href="#bc"/></g><g id="Y"><use transform="matrix(0.010416666666666668,0,0,0.010416666666666668,0,0)" xlink:href="#aO"/><use transform="matrix(0.010416666666666668,0,0,0.010416666666666668,11.604166666666668,0)" xlink:href="#bd"/><use transform="matrix(0.010416666666666668,0,0,0.010416666666666668,23.635416666666668,0)" xlink:href="#bd"/><use transform="matrix(0.010416666666666668,0,0,0.010416666666666668,35.66666666666667,0)" xlink:href="#aW"/><use transform="matrix(0.010416666666666668,0,0,0.010416666666666668,42.68750000000001,0)" xlink:href="#aQ"/><use transform="matrix(0.010416666666666668,0,0,0.010416666666666668,53.98958333333334,0)" xlink:href="#aR"/><use transform="matrix(0.010416666666666668,0,0,0.010416666666666668,64.98958333333334,0)" xlink:href="#aR"/><use transform="matrix(0.010416666666666668,0,0,0.010416666666666668,75.98958333333334,0)" xlink:href="#aZ"/><use transform="matrix(0.010416666666666668,0,0,0.010416666666666668,81.16666666666667,0)" xlink:href="#aU"/><use transform="matrix(0.010416666666666668,0,0,0.010416666666666668,92.93749999999999,0)" xlink:href="#bs"/></g><g id="Z"><use transform="matrix(0.010416666666666668,0,0,0.010416666666666668,0,0)" xlink:href="#aW"/><use transform="matrix(0.010416666666666668,0,0,0.010416666666666668,7.010416666666668,0)" xlink:href="#aT"/><use transform="matrix(0.010416666666666668,0,0,0.010416666666666668,19.177083333333336,0)" xlink:href="#be"/><use transform="matrix(0.010416666666666668,0,0,0.010416666666666668,30.937500000000004,0)" xlink:href="#aS"/><use transform="matrix(0.010416666666666668,0,0,0.010416666666666668,37.90625000000001,0)" xlink:href="#aZ"/><use transform="matrix(0.010416666666666668,0,0,0.010416666666666668,43.083333333333336,0)" xlink:href="#aU"/><use transform="matrix(0.010416666666666668,0,0,0.010416666666666668,54.854166666666686,0)" xlink:href="#bs"/></g><g id="aa"><use transform="matrix(0.010416666666666668,0,0,0.010416666666666668,0,0)" xlink:href="#aO"/><use transform="matrix(0.010416666666666668,0,0,0.010416666666666668,11.604166666666668,0)" xlink:href="#aP"/><use transform="matrix(0.010416666666666668,0,0,0.010416666666666668,22.770833333333336,0)" xlink:href="#aW"/><use transform="matrix(0.010416666666666668,0,0,0.010416666666666668,29.781250000000004,0)" xlink:href="#aT"/><use transform="matrix(0.010416666666666668,0,0,0.010416666666666668,41.94791666666667,0)" xlink:href="#aR"/><use transform="matrix(0.010416666666666668,0,0,0.010416666666666668,52.94791666666667,0)" xlink:href="#aR"/></g><g id="ab"><use transform="matrix(0.010416666666666668,0,0,0.010416666666666668,0,0)" xlink:href="#bl"/><use transform="matrix(0.010416666666666668,0,0,0.010416666666666668,18.697916666666668,0)" xlink:href="#be"/><use transform="matrix(0.010416666666666668,0,0,0.010416666666666668,30.458333333333336,0)" xlink:href="#bc"/><use transform="matrix(0.010416666666666668,0,0,0.010416666666666668,35.63541666666667,0)" xlink:href="#aS"/><use transform="matrix(0.010416666666666668,0,0,0.010416666666666668,42.60416666666667,0)" xlink:href="#aZ"/><use transform="matrix(0.010416666666666668,0,0,0.010416666666666668,47.78125000000001,0)" xlink:href="#bb"/><use transform="matrix(0.010416666666666668,0,0,0.010416666666666668,59.75000000000001,0)" xlink:href="#bc"/><use transform="matrix(0.010416666666666668,0,0,0.010416666666666668,64.92708333333334,0)" xlink:href="#aQ"/></g><g id="ac"><use transform="matrix(0.010416666666666668,0,0,0.010416666666666668,0,0)" xlink:href="#aU"/><use transform="matrix(0.010416666666666668,0,0,0.010416666666666668,11.770833333333334,0)" xlink:href="#aQ"/><use transform="matrix(0.010416666666666668,0,0,0.010416666666666668,23.072916666666668,0)" xlink:href="#aS"/><use transform="matrix(0.010416666666666668,0,0,0.010416666666666668,30.04166666666667,0)" xlink:href="#aV"/><use transform="matrix(0.010416666666666668,0,0,0.010416666666666668,46.07291666666667,0)" xlink:href="#aT"/><use transform="matrix(0.010416666666666668,0,0,0.010416666666666668,58.23958333333334,0)" xlink:href="#aW"/><use transform="matrix(0.010416666666666668,0,0,0.010416666666666668,65.45833333333334,0)" xlink:href="#aX"/><use transform="matrix(0.010416666666666668,0,0,0.010416666666666668,76.27083333333334,0)" xlink:href="#aR"/><use transform="matrix(0.010416666666666668,0,0,0.010416666666666668,87.27083333333334,0)" xlink:href="#bg"/></g><path d="M182-182c0 78-84 86-111 141h115V0H12c-6-101 99-100 120-180 1-22-12-31-33-32-23 0-32 14-35 34l-49-3c5-45 32-70 84-70 51 0 83 22 83 69" id="bB"/><use transform="matrix(0.05,0,0,0.05,0,0)" xlink:href="#bB" id="ad"/><path d="M24-248c120-7 223 5 221 122C244-46 201 0 124 0H24v-248zM76-40c74 7 117-18 117-86 0-67-45-88-117-82v168" id="bC"/><g id="ae"><use transform="matrix(0.07469135802469135,0,0,0.07469135802469135,0,0)" xlink:href="#bC"/><use transform="matrix(0.07469135802469135,0,0,0.07469135802469135,19.34506172839506,0)" xlink:href="#aA"/><use transform="matrix(0.07469135802469135,0,0,0.07469135802469135,34.28333333333333,0)" xlink:href="#aL"/><use transform="matrix(0.07469135802469135,0,0,0.07469135802469135,43.1716049382716,0)" xlink:href="#aA"/></g><g id="af"><use transform="matrix(0.07469135802469135,0,0,0.07469135802469135,0,0)" xlink:href="#az"/><use transform="matrix(0.07469135802469135,0,0,0.07469135802469135,16.357407407407404,0)" xlink:href="#aJ"/><use transform="matrix(0.07469135802469135,0,0,0.07469135802469135,23.82654320987654,0)" xlink:href="#aN"/><use transform="matrix(0.07469135802469135,0,0,0.07469135802469135,40.18395061728394,0)" xlink:href="#bA"/></g><path fill="#6db1ff" d="M417-1456L893-268l476-1188h249V0h-192c-4-403 4-794 18-1179L966 0H819L342-1176c15 384 23 773 19 1176H169v-1456h248" id="bD"/><g id="ag"><use transform="matrix(0.010416666666666668,0,0,0.010416666666666668,0,0)" xlink:href="#bD"/><use transform="matrix(0.010416666666666668,0,0,0.010416666666666668,18.625000000000004,0)" xlink:href="#aO"/><use transform="matrix(0.010416666666666668,0,0,0.010416666666666668,30.22916666666667,0)" xlink:href="#aU"/><use transform="matrix(0.010416666666666668,0,0,0.010416666666666668,42.00000000000001,0)" xlink:href="#aO"/><use transform="matrix(0.010416666666666668,0,0,0.010416666666666668,53.60416666666667,0)" xlink:href="#bs"/><use transform="matrix(0.010416666666666668,0,0,0.010416666666666668,65.57291666666667,0)" xlink:href="#aQ"/><use transform="matrix(0.010416666666666668,0,0,0.010416666666666668,76.875,0)" xlink:href="#aR"/></g><g id="ah"><use transform="matrix(0.010416666666666668,0,0,0.010416666666666668,0,0)" xlink:href="#aO"/><use transform="matrix(0.010416666666666668,0,0,0.010416666666666668,11.604166666666668,0)" xlink:href="#aP"/><use transform="matrix(0.010416666666666668,0,0,0.010416666666666668,22.770833333333336,0)" xlink:href="#aP"/><use transform="matrix(0.010416666666666668,0,0,0.010416666666666668,33.9375,0)" xlink:href="#aQ"/><use transform="matrix(0.010416666666666668,0,0,0.010416666666666668,45.239583333333336,0)" xlink:href="#aR"/><use transform="matrix(0.010416666666666668,0,0,0.010416666666666668,56.23958333333334,0)" xlink:href="#aR"/></g><g id="ai"><use transform="matrix(0.010416666666666668,0,0,0.010416666666666668,0,0)" xlink:href="#aS"/><use transform="matrix(0.010416666666666668,0,0,0.010416666666666668,6.968750000000001,0)" xlink:href="#bf"/><use transform="matrix(0.010416666666666668,0,0,0.010416666666666668,18.718750000000004,0)" xlink:href="#aQ"/></g><g id="aj"><use transform="matrix(0.010416666666666668,0,0,0.010416666666666668,0,0)" xlink:href="#aS"/><use transform="matrix(0.010416666666666668,0,0,0.010416666666666668,6.968750000000001,0)" xlink:href="#aW"/><use transform="matrix(0.010416666666666668,0,0,0.010416666666666668,13.770833333333336,0)" xlink:href="#aO"/><use transform="matrix(0.010416666666666668,0,0,0.010416666666666668,25.375000000000004,0)" xlink:href="#aU"/><use transform="matrix(0.010416666666666668,0,0,0.010416666666666668,37.145833333333336,0)" xlink:href="#aR"/><use transform="matrix(0.010416666666666668,0,0,0.010416666666666668,48.145833333333336,0)" xlink:href="#bl"/><use transform="matrix(0.010416666666666668,0,0,0.010416666666666668,66.84375,0)" xlink:href="#aZ"/><use transform="matrix(0.010416666666666668,0,0,0.010416666666666668,72.02083333333333,0)" xlink:href="#aR"/><use transform="matrix(0.010416666666666668,0,0,0.010416666666666668,83.02083333333333,0)" xlink:href="#aR"/><use transform="matrix(0.010416666666666668,0,0,0.010416666666666668,94.02083333333333,0)" xlink:href="#aZ"/><use transform="matrix(0.010416666666666668,0,0,0.010416666666666668,99.19791666666666,0)" xlink:href="#aT"/><use transform="matrix(0.010416666666666668,0,0,0.010416666666666668,111.36458333333333,0)" xlink:href="#aU"/></g><g id="ak"><use transform="matrix(0.010416666666666668,0,0,0.010416666666666668,0,0)" xlink:href="#bl"/><use transform="matrix(0.010416666666666668,0,0,0.010416666666666668,18.697916666666668,0)" xlink:href="#aQ"/><use transform="matrix(0.010416666666666668,0,0,0.010416666666666668,30,0)" xlink:href="#bd"/><use transform="matrix(0.010416666666666668,0,0,0.010416666666666668,42.03125,0)" xlink:href="#aZ"/><use transform="matrix(0.010416666666666668,0,0,0.010416666666666668,47.208333333333336,0)" xlink:href="#be"/><use transform="matrix(0.010416666666666668,0,0,0.010416666666666668,58.96875,0)" xlink:href="#bl"/></g><path fill="#6db1ff" d="M314-151h633V0H88v-136l597-793H97v-153h820v131" id="bE"/><g id="al"><use transform="matrix(0.010416666666666668,0,0,0.010416666666666668,0,0)" xlink:href="#aT"/><use transform="matrix(0.010416666666666668,0,0,0.010416666666666668,12.166666666666668,0)" xlink:href="#aW"/><use transform="matrix(0.010416666666666668,0,0,0.010416666666666668,19.187500000000004,0)" xlink:href="#bs"/><use transform="matrix(0.010416666666666668,0,0,0.010416666666666668,31.156250000000007,0)" xlink:href="#aO"/><use transform="matrix(0.010416666666666668,0,0,0.010416666666666668,42.76041666666667,0)" xlink:href="#aU"/><use transform="matrix(0.010416666666666668,0,0,0.010416666666666668,54.53125000000001,0)" xlink:href="#aZ"/><use transform="matrix(0.010416666666666668,0,0,0.010416666666666668,59.70833333333334,0)" xlink:href="#bE"/><use transform="matrix(0.010416666666666668,0,0,0.010416666666666668,70.11458333333334,0)" xlink:href="#aQ"/><use transform="matrix(0.010416666666666668,0,0,0.010416666666666668,81.41666666666667,0)" xlink:href="#aR"/></g><g id="am"><use transform="matrix(0.010416666666666668,0,0,0.010416666666666668,0,0)" xlink:href="#aZ"/><use transform="matrix(0.010416666666666668,0,0,0.010416666666666668,5.177083333333334,0)" xlink:href="#aU"/><use transform="matrix(0.010416666666666668,0,0,0.010416666666666668,16.947916666666668,0)" xlink:href="#aS"/><use transform="matrix(0.010416666666666668,0,0,0.010416666666666668,23.708333333333336,0)" xlink:href="#aT"/></g><g id="an"><use transform="matrix(0.010416666666666668,0,0,0.010416666666666668,0,0)" xlink:href="#ba"/><use transform="matrix(0.010416666666666668,0,0,0.010416666666666668,7.406250000000001,0)" xlink:href="#aW"/><use transform="matrix(0.010416666666666668,0,0,0.010416666666666668,14.208333333333336,0)" xlink:href="#aO"/><use transform="matrix(0.010416666666666668,0,0,0.010416666666666668,25.812500000000004,0)" xlink:href="#bl"/><use transform="matrix(0.010416666666666668,0,0,0.010416666666666668,44.51041666666667,0)" xlink:href="#aQ"/><use transform="matrix(0.010416666666666668,0,0,0.010416666666666668,55.81250000000001,0)" xlink:href="#aR"/><use transform="matrix(0.010416666666666668,0,0,0.010416666666666668,66.81250000000001,0)" xlink:href="#bg"/></g><path d="M23 0v-37h61v-169l-59 37v-38l62-41h46v211h57V0H23" id="bF"/><use transform="matrix(0.05,0,0,0.05,0,0)" xlink:href="#bF" id="ao"/><path d="M114-157C55-157 80-60 75 0H25v-261h50l-1 109c12-26 28-41 61-42 86-1 58 113 63 194h-50c-7-57 23-157-34-157" id="bG"/><g id="ap"><use transform="matrix(0.07469135802469135,0,0,0.07469135802469135,0,0)" xlink:href="#bi"/><use transform="matrix(0.07469135802469135,0,0,0.07469135802469135,17.925925925925924,0)" xlink:href="#bG"/><use transform="matrix(0.07469135802469135,0,0,0.07469135802469135,34.28333333333333,0)" xlink:href="#aB"/><use transform="matrix(0.07469135802469135,0,0,0.07469135802469135,49.2216049382716,0)" xlink:href="#bj"/><use transform="matrix(0.07469135802469135,0,0,0.07469135802469135,64.15987654320986,0)" xlink:href="#aJ"/><use transform="matrix(0.07469135802469135,0,0,0.07469135802469135,71.629012345679,0)" xlink:href="#aK"/><use transform="matrix(0.07469135802469135,0,0,0.07469135802469135,86.56728395061727,0)" xlink:href="#aA"/><use transform="matrix(0.07469135802469135,0,0,0.07469135802469135,101.50555555555553,0)" xlink:href="#aI"/></g><g id="aq"><use transform="matrix(0.010416666666666668,0,0,0.010416666666666668,0,0)" xlink:href="#bb"/><use transform="matrix(0.010416666666666668,0,0,0.010416666666666668,11.968750000000002,0)" xlink:href="#bf"/><use transform="matrix(0.010416666666666668,0,0,0.010416666666666668,23.718750000000004,0)" xlink:href="#bm"/><use transform="matrix(0.010416666666666668,0,0,0.010416666666666668,33.81250000000001,0)" xlink:href="#aR"/><use transform="matrix(0.010416666666666668,0,0,0.010416666666666668,44.81250000000001,0)" xlink:href="#aZ"/><use transform="matrix(0.010416666666666668,0,0,0.010416666666666668,49.989583333333336,0)" xlink:href="#aP"/><use transform="matrix(0.010416666666666668,0,0,0.010416666666666668,61.156250000000014,0)" xlink:href="#aO"/><use transform="matrix(0.010416666666666668,0,0,0.010416666666666668,72.76041666666669,0)" xlink:href="#bc"/></g><g id="ar"><use transform="matrix(0.010416666666666668,0,0,0.010416666666666668,0,0)" xlink:href="#aZ"/><use transform="matrix(0.010416666666666668,0,0,0.010416666666666668,5.177083333333334,0)" xlink:href="#aU"/><use transform="matrix(0.010416666666666668,0,0,0.010416666666666668,16.947916666666668,0)" xlink:href="#aS"/><use transform="matrix(0.010416666666666668,0,0,0.010416666666666668,23.916666666666668,0)" xlink:href="#aQ"/><use transform="matrix(0.010416666666666668,0,0,0.010416666666666668,35.21875,0)" xlink:href="#aW"/><use transform="matrix(0.010416666666666668,0,0,0.010416666666666668,42.59375,0)" xlink:href="#ba"/><use transform="matrix(0.010416666666666668,0,0,0.010416666666666668,49.99999999999999,0)" xlink:href="#aO"/><use transform="matrix(0.010416666666666668,0,0,0.010416666666666668,61.60416666666667,0)" xlink:href="#aP"/><use transform="matrix(0.010416666666666668,0,0,0.010416666666666668,72.77083333333334,0)" xlink:href="#aQ"/></g><g id="as"><use transform="matrix(0.010416666666666668,0,0,0.010416666666666668,0,0)" xlink:href="#bq"/><use transform="matrix(0.010416666666666668,0,0,0.010416666666666668,11.968750000000002,0)" xlink:href="#aQ"/><use transform="matrix(0.010416666666666668,0,0,0.010416666666666668,23.270833333333336,0)" xlink:href="#aS"/><use transform="matrix(0.010416666666666668,0,0,0.010416666666666668,30.239583333333336,0)" xlink:href="#aV"/><use transform="matrix(0.010416666666666668,0,0,0.010416666666666668,46.270833333333336,0)" xlink:href="#aQ"/><use transform="matrix(0.010416666666666668,0,0,0.010416666666666668,57.572916666666686,0)" xlink:href="#aQ"/><use transform="matrix(0.010416666666666668,0,0,0.010416666666666668,68.87500000000001,0)" xlink:href="#aU"/></g><g id="at"><use transform="matrix(0.010416666666666668,0,0,0.010416666666666668,0,0)" xlink:href="#bd"/><use transform="matrix(0.010416666666666668,0,0,0.010416666666666668,12.031250000000002,0)" xlink:href="#aQ"/><use transform="matrix(0.010416666666666668,0,0,0.010416666666666668,23.197916666666668,0)" xlink:href="#aY"/><use transform="matrix(0.010416666666666668,0,0,0.010416666666666668,33.53125000000001,0)" xlink:href="#aZ"/><use transform="matrix(0.010416666666666668,0,0,0.010416666666666668,38.70833333333334,0)" xlink:href="#aP"/><use transform="matrix(0.010416666666666668,0,0,0.010416666666666668,49.875000000000014,0)" xlink:href="#aQ"/><use transform="matrix(0.010416666666666668,0,0,0.010416666666666668,61.17708333333335,0)" xlink:href="#aR"/></g><g id="au"><use transform="matrix(0.010416666666666668,0,0,0.010416666666666668,0,0)" xlink:href="#bl"/><use transform="matrix(0.010416666666666668,0,0,0.010416666666666668,18.697916666666668,0)" xlink:href="#aQ"/><use transform="matrix(0.010416666666666668,0,0,0.010416666666666668,30,0)" xlink:href="#bd"/><use transform="matrix(0.010416666666666668,0,0,0.010416666666666668,42.03125,0)" xlink:href="#aZ"/><use transform="matrix(0.010416666666666668,0,0,0.010416666666666668,47.208333333333336,0)" xlink:href="#be"/><use transform="matrix(0.010416666666666668,0,0,0.010416666666666668,58.96875,0)" xlink:href="#bl"/><use transform="matrix(0.010416666666666668,0,0,0.010416666666666668,77.66666666666667,0)" xlink:href="#bg"/></g><path fill="#ff8f8f" d="M232-93c-1 65-40 97-104 97C67 4 28-28 28-90v-158h33c8 89-33 224 67 224 102 0 64-133 71-224h33v155" id="bH"/><path fill="#ff8f8f" d="M115-194c55 1 70 41 70 98S169 2 115 4C84 4 66-9 55-30l1 105H24l-1-265h31l2 30c10-21 28-34 59-34zm-8 174c40 0 45-34 45-75s-6-73-45-74c-42 0-51 32-51 76 0 43 10 73 51 73" id="bI"/><path fill="#ff8f8f" d="M100-194c63 0 86 42 84 106H49c0 40 14 67 53 68 26 1 43-12 49-29l28 8c-11 28-37 45-77 45C44 4 14-33 15-96c1-61 26-98 85-98zm52 81c6-60-76-77-97-28-3 7-6 17-6 28h103" id="bJ"/><path fill="#ff8f8f" d="M114-163C36-179 61-72 57 0H25l-1-190h30c1 12-1 29 2 39 6-27 23-49 58-41v29" id="bK"/><g id="av"><use transform="matrix(0.07407407407407407,0,0,0.07407407407407407,0,0)" xlink:href="#bH"/><use transform="matrix(0.07407407407407407,0,0,0.07407407407407407,19.185185185185183,0)" xlink:href="#bI"/><use transform="matrix(0.07407407407407407,0,0,0.07407407407407407,34,0)" xlink:href="#bI"/><use transform="matrix(0.07407407407407407,0,0,0.07407407407407407,48.81481481481481,0)" xlink:href="#bJ"/><use transform="matrix(0.07407407407407407,0,0,0.07407407407407407,63.62962962962962,0)" xlink:href="#bK"/></g><path fill="#ff8f8f" d="M30 0v-248h33v221h125V0H30" id="bL"/><path fill="#ff8f8f" d="M100-194c62-1 85 37 85 99 1 63-27 99-86 99S16-35 15-95c0-66 28-99 85-99zM99-20c44 1 53-31 53-75 0-43-8-75-51-75s-53 32-53 75 10 74 51 75" id="bM"/><path fill="#ff8f8f" d="M206 0h-36l-40-164L89 0H53L-1-190h32L70-26l43-164h34l41 164 42-164h31" id="bN"/><g id="aw"><use transform="matrix(0.07407407407407407,0,0,0.07407407407407407,0,0)" xlink:href="#bL"/><use transform="matrix(0.07407407407407407,0,0,0.07407407407407407,14.814814814814813,0)" xlink:href="#bM"/><use transform="matrix(0.07407407407407407,0,0,0.07407407407407407,29.629629629629626,0)" xlink:href="#bN"/><use transform="matrix(0.07407407407407407,0,0,0.07407407407407407,48.81481481481481,0)" xlink:href="#bJ"/><use transform="matrix(0.07407407407407407,0,0,0.07407407407407407,63.62962962962962,0)" xlink:href="#bK"/></g><path d="M33 0v-248h34V0H33" id="bO"/><path d="M117-194c89-4 53 116 60 194h-32v-121c0-31-8-49-39-48C34-167 62-67 57 0H25l-1-190h30c1 10-1 24 2 32 11-22 29-35 61-36" id="bP"/><path d="M59-47c-2 24 18 29 38 22v24C64 9 27 4 27-40v-127H5v-23h24l9-43h21v43h35v23H59v120" id="bQ"/><path d="M100-194c63 0 86 42 84 106H49c0 40 14 67 53 68 26 1 43-12 49-29l28 8c-11 28-37 45-77 45C44 4 14-33 15-96c1-61 26-98 85-98zm52 81c6-60-76-77-97-28-3 7-6 17-6 28h103" id="bR"/><path d="M114-163C36-179 61-72 57 0H25l-1-190h30c1 12-1 29 2 39 6-27 23-49 58-41v29" id="bS"/><path d="M101-234c-31-9-42 10-38 44h38v23H63V0H32v-167H5v-23h27c-7-52 17-82 69-68v24" id="bT"/><path d="M141-36C126-15 110 5 73 4 37 3 15-17 15-53c-1-64 63-63 125-63 3-35-9-54-41-54-24 1-41 7-42 31l-33-3c5-37 33-52 76-52 45 0 72 20 72 64v82c-1 20 7 32 28 27v20c-31 9-61-2-59-35zM48-53c0 20 12 33 32 33 41-3 63-29 60-74-43 2-92-5-92 41" id="bU"/><path d="M96-169c-40 0-48 33-48 73s9 75 48 75c24 0 41-14 43-38l32 2c-6 37-31 61-74 61-59 0-76-41-82-99-10-93 101-131 147-64 4 7 5 14 7 22l-32 3c-4-21-16-35-41-35" id="bV"/><g id="ax"><use transform="matrix(0.0685185185185185,0,0,0.0685185185185185,0,0)" xlink:href="#bO"/><use transform="matrix(0.0685185185185185,0,0,0.0685185185185185,6.85185185185185,0)" xlink:href="#bP"/><use transform="matrix(0.0685185185185185,0,0,0.0685185185185185,20.555555555555554,0)" xlink:href="#bQ"/><use transform="matrix(0.0685185185185185,0,0,0.0685185185185185,27.4074074074074,0)" xlink:href="#bR"/><use transform="matrix(0.0685185185185185,0,0,0.0685185185185185,41.11111111111111,0)" xlink:href="#bS"/><use transform="matrix(0.0685185185185185,0,0,0.0685185185185185,49.2648148148148,0)" xlink:href="#bT"/><use transform="matrix(0.0685185185185185,0,0,0.0685185185185185,56.116666666666646,0)" xlink:href="#bU"/><use transform="matrix(0.0685185185185185,0,0,0.0685185185185185,69.82037037037034,0)" xlink:href="#bV"/><use transform="matrix(0.0685185185185185,0,0,0.0685185185185185,82.15370370370367,0)" xlink:href="#bR"/></g><path fill="#333" d="M135-194c52 0 70 43 70 98 0 56-19 99-73 100-30 1-46-15-58-35L72 0H24l1-261h50v104c11-23 29-37 60-37zM114-30c31 0 40-27 40-66 0-37-7-63-39-63s-41 28-41 65c0 36 8 64 40 64" id="bW"/><path fill="#333" d="M110-194c64 0 96 36 96 99 0 64-35 99-97 99-61 0-95-36-95-99 0-62 34-99 96-99zm-1 164c35 0 45-28 45-65 0-40-10-65-43-65-34 0-45 26-45 65 0 36 10 65 43 65" id="bX"/><path fill="#333" d="M85 4C-2 5 27-109 22-190h50c7 57-23 150 33 157 60-5 35-97 40-157h50l1 190h-47c-2-12 1-28-3-38-12 25-28 42-61 42" id="bY"/><path fill="#333" d="M135-194c87-1 58 113 63 194h-50c-7-57 23-157-34-157-59 0-34 97-39 157H25l-1-190h47c2 12-1 28 3 38 12-26 28-41 61-42" id="bZ"/><path fill="#333" d="M88-194c31-1 46 15 58 34l-1-101h50l1 261h-48c-2-10 0-23-3-31C134-8 116 4 84 4 32 4 16-41 15-95c0-56 19-97 73-99zm17 164c33 0 40-30 41-66 1-37-9-64-41-64s-38 30-39 65c0 43 13 65 39 65" id="ca"/><path fill="#333" d="M133-34C117-15 103 5 69 4 32 3 11-16 11-54c-1-60 55-63 116-61 1-26-3-47-28-47-18 1-26 9-28 27l-52-2c7-38 36-58 82-57s74 22 75 68l1 82c-1 14 12 18 25 15v27c-30 8-71 5-69-32zm-48 3c29 0 43-24 42-57-32 0-66-3-65 30 0 17 8 27 23 27" id="cb"/><path fill="#333" d="M135-150c-39-12-60 13-60 57V0H25l-1-190h47c2 13-1 29 3 40 6-28 27-53 61-41v41" id="cc"/><path fill="#333" d="M123 10C108 53 80 86 19 72V37c35 8 53-11 59-39L3-190h52l48 148c12-52 28-100 44-148h51" id="cd"/><g id="ay"><use transform="matrix(0.06172839506172839,0,0,0.06172839506172839,0,0)" xlink:href="#bW"/><use transform="matrix(0.06172839506172839,0,0,0.06172839506172839,13.518518518518517,0)" xlink:href="#bX"/><use transform="matrix(0.06172839506172839,0,0,0.06172839506172839,27.037037037037035,0)" xlink:href="#bY"/><use transform="matrix(0.06172839506172839,0,0,0.06172839506172839,40.55555555555555,0)" xlink:href="#bZ"/><use transform="matrix(0.06172839506172839,0,0,0.06172839506172839,54.07407407407407,0)" xlink:href="#ca"/><use transform="matrix(0.06172839506172839,0,0,0.06172839506172839,67.59259259259258,0)" xlink:href="#cb"/><use transform="matrix(0.06172839506172839,0,0,0.06172839506172839,79.93827160493827,0)" xlink:href="#cc"/><use transform="matrix(0.06172839506172839,0,0,0.06172839506172839,88.58024691358024,0)" xlink:href="#cd"/></g></defs></g></svg>